<?xml version="1.0" encoding="UTF-8"?>
<svg version="1.1" xmlns="http://www.w3.org/2000/svg" width="1280" height="720">
<path d="M0 0 C1.13824219 1.51980469 2.27648437 3.03960937 3.44921875 4.60546875 C6.3125 8.8125 6.3125 8.8125 8.3125 13.8125 C8.9725 13.8125 9.6325 13.8125 10.3125 13.8125 C12.68994938 17.11451302 15.01913913 20.4515401 17.3125 23.8125 C19.2925 26.2875 19.2925 26.2875 21.3125 28.8125 C22.3025 30.235625 23.2925 31.65875 24.3125 33.125 C27.58775604 37.78200468 30.94361697 42.33383882 34.375 46.875 C46.3125 62.83355263 46.3125 62.83355263 46.3125 65.8125 C46.9725 65.8125 47.6325 65.8125 48.3125 65.8125 C51.31483412 70.47766533 54.31441832 75.14460068 57.3125 79.8125 C60.26229559 83.51967553 63.25818387 87.19095373 66.3125 90.8125 C73.1825565 99.29272599 73.1825565 99.29272599 74.3125 103.8125 C81.74213745 96.38286255 88.1581904 88.43437805 94.25 79.875 C100.90689394 70.58822204 108.2129731 62.09865152 115.9375 53.6875 C119.29779837 50.01461573 122.56683151 46.25354512 125.6875 42.375 C131.18107616 35.7678611 137.20898472 29.8561769 143.3125 23.8125 C144.488125 22.430625 145.66375 21.04875 146.875 19.625 C165.03874706 -0.52024674 180.20532743 -1.37525108 205.875 -1.3125 C207.79924805 -1.31056641 209.72349609 -1.30863281 211.70605469 -1.30664062 C223.89955805 -1.26977131 236.05001193 -0.97689145 248.23046875 -0.390625 C254.0238842 -0.22445975 259.75812691 -0.21444737 265.55078125 -0.296875 C267.33838867 -0.31814453 269.12599609 -0.33941406 270.96777344 -0.36132812 C274.52738545 -0.41147256 278.0867742 -0.48253834 281.64550781 -0.57617188 C298.41374991 -0.79720323 304.05988641 16.37826699 293.3125 29.8125 C291.95125 32.0709375 291.95125 32.0709375 290.5625 34.375 C282.83425618 44.92702521 274.96276571 43.07260629 264.3125 38.8125 C247.83161568 40.87261054 252.25763867 58.66659062 253.1484375 72.24609375 C253.39717054 80.68525031 252.58453527 88.98367919 251.859375 97.38671875 C250.35656499 115.04473641 250.25480731 132.60093019 250.47265625 150.31640625 C250.3125 156.8125 250.3125 156.8125 248.3125 161.8125 C247.12215525 171.66442382 247.26698645 181.42411293 247.3984375 191.3359375 C247.41967682 192.99485016 247.44091614 194.65376282 247.46279907 196.36294556 C247.50887411 199.85756141 247.55778557 203.35214089 247.609375 206.84667969 C247.68714658 212.16333932 247.75441778 217.48005633 247.8203125 222.796875 C247.75503492 246.72269928 247.75503492 246.72269928 250.34375 270.44140625 C251.67464737 279.19420308 251.69830044 287.91644537 251.8125 296.75 C252.03715751 309.47212832 252.42115735 322.11905549 253.375 334.8125 C256.13644678 372.02830579 256.13644678 372.02830579 236.0715332 371.85009766 C233.90690018 371.83322906 231.74226715 371.81636047 229.51203918 371.79898071 C227.15294907 371.7750827 224.79385895 371.75118469 222.36328125 371.7265625 C219.93848923 371.70532318 217.5136972 371.68408386 215.01542664 371.66220093 C209.86125434 371.61582292 204.70710456 371.56688593 199.55297852 371.515625 C191.73132805 371.43854779 183.90963921 371.37096303 176.08789062 371.3046875 C171.07551549 371.258387 166.06314547 371.21152903 161.05078125 371.1640625 C158.73419998 371.14421295 156.41761871 371.1243634 154.03083801 371.10391235 C147.45720144 371.03562817 140.8853489 370.93438955 134.3125 370.8125 C132.09534271 370.778078 129.87818542 370.74365601 127.59384155 370.70819092 C125.46452179 370.65286194 123.33520203 370.59753296 121.14135742 370.54052734 C119.24794113 370.4972934 117.35452484 370.45405945 115.4037323 370.40951538 C107.35675517 369.46589921 102.43267183 365.9126432 96.3125 360.8125 C89.43544147 359.66632358 84.71772357 359.00205286 81.3125 365.8125 C71.84317072 375.28182928 63.7622677 378.03738385 51.3125 371.8125 C25.63535125 369.07028023 -0.81140263 371.00673139 -26.5703125 371.54492188 C-41.57560075 371.81009544 -56.52131946 371.76305888 -71.5234375 371.33984375 C-105.19290902 370.40207817 -138.88327465 370.7446627 -172.5625 370.8125 C-182.81730957 370.83304636 -193.07211037 370.85223057 -203.32693481 370.86352539 C-209.66131316 370.87094956 -215.99568851 370.88285686 -222.33004761 370.90014648 C-304.14339412 370.99326557 -304.14339412 370.99326557 -337.6875 344.8125 C-340.2553125 342.894375 -340.2553125 342.894375 -342.875 340.9375 C-367.10069155 320.17262153 -386.86526926 239.8125 -368.6875 239.8125 C-366.2125 243.2775 -366.2125 243.2775 -363.6875 246.8125 C-362.0375 248.4625 -360.3875 250.1125 -358.6875 251.8125 C-356.6875 253.8125 -356.6875 253.8125 -356.6875 256.8125 C-355.3675 257.4725 -354.0475 258.1325 -352.6875 258.8125 C-352.3575 259.8025 -352.0275 260.7925 -351.6875 261.8125 C-351.0275 261.8125 -350.3675 261.8125 -349.6875 261.8125 C-349.6875 262.4725 -349.6875 263.1325 -349.6875 263.8125 C-344.83042853 258.95542853 -342.07002938 252.75755164 -338.6875 246.8125 C-337.0375 244.5025 -335.3875 242.1925 -333.6875 239.8125 C-332.800625 238.018125 -331.91375 236.22375 -331 234.375 C-328.6875 229.8125 -328.6875 229.8125 -326.6875 229.8125 C-326.3575 228.1625 -326.0275 226.5125 -325.6875 224.8125 C-317.37046661 207.42233927 -307.54935222 211.08879555 -299.6875 226.8125 C-273.10863601 266.68079599 -189.57161516 305.8368071 -166.6875 244.8125 C-172.48065963 242.76483393 -172.48065963 242.76483393 -179.6875 241.8125 C-181.70875 241.27625 -183.73 240.74 -185.8125 240.1875 C-191.50910213 238.85425269 -196.8636761 238.27055356 -202.6875 237.8125 C-211.56510694 236.52446724 -220.37619797 234.99279481 -229.1875 233.3125 C-231.4253125 232.8896875 -233.663125 232.466875 -235.96875 232.03125 C-241.6875 230.8125 -241.6875 230.8125 -246.6875 228.8125 C-248.24339844 228.50699219 -249.79929687 228.20148438 -251.40234375 227.88671875 C-261.06229316 225.9233144 -304.6875 214.18903533 -304.6875 205.8125 C-306.3375 205.4825 -307.9875 205.1525 -309.6875 204.8125 C-314.6875 200.8125 -314.6875 200.8125 -314.6875 198.8125 C-316.3375 198.1525 -317.9875 197.4925 -319.6875 196.8125 C-321.9975 194.5025 -324.3075 192.1925 -326.6875 189.8125 C-328.6675 188.1109375 -328.6675 188.1109375 -330.6875 186.375 C-364.04040538 156.67006865 -370.49562772 106.8725805 -358.6875 65.8125 C-357.6975 62.0071875 -357.6975 62.0071875 -356.6875 58.125 C-340.97826429 8.54272478 -292.57645832 -1.59497621 -246.85424805 -1.3828125 C-244.45343964 -1.37989197 -242.05263123 -1.37697144 -239.57907104 -1.3739624 C-234.40052648 -1.36638857 -229.22198699 -1.35419622 -224.04346275 -1.33782959 C-215.85292396 -1.31219866 -207.66245025 -1.29924591 -199.47187805 -1.28955078 C-182.10622265 -1.26675918 -164.74062136 -1.22823175 -147.375 -1.1875 C-127.20394597 -1.14032339 -107.03292206 -1.09957006 -86.86182594 -1.07562256 C-78.78338684 -1.06263531 -70.70504087 -1.03762777 -62.62663269 -1.01220703 C-57.69729697 -1.00494524 -52.76796039 -0.99824138 -47.83862305 -0.9921875 C-45.58557846 -0.98185486 -43.33253387 -0.97152222 -41.01121521 -0.96087646 C-37.92269196 -0.96066498 -37.92269196 -0.96066498 -34.77177429 -0.96044922 C-32.98274028 -0.956008 -31.19370626 -0.95156677 -29.3504591 -0.94699097 C-1.74858443 -2.3706578 -1.74858443 -2.3706578 0 0 Z M-96.6875 102.8125 C-106.63835995 114.64296683 -106.63835995 114.64296683 -111.5 120.0625 C-117.02210347 126.55909232 -120.86984988 133.17719977 -124.6875 140.8125 C-136.70858619 142.52979803 -138.32195873 134.45743572 -140.6875 123.8125 C-157.30284493 93.3510343 -247.9233292 77.39752477 -242.6875 108.8125 C-229.52299525 125.26813094 -205.15102171 131.07401653 -185.63671875 136.234375 C-177.24868002 138.45943583 -168.90507323 140.83743865 -160.5546875 143.19921875 C-156.57949678 144.29226387 -152.59023032 145.33513799 -148.58984375 146.33203125 C-143.13820212 147.69945162 -137.76419887 149.21938809 -132.375 150.8125 C-123.87166284 153.26969209 -115.37493676 155.10603921 -106.6875 156.8125 C-104.439375 157.534375 -102.19125 158.25625 -99.875 159 C-88.15414664 162.43338129 -82.30714941 163.74770113 -82.89453125 150.47265625 C-82.96736328 148.29349609 -83.04019531 146.11433594 -83.11523438 143.86914062 C-83.24220703 141.56107422 -83.36917969 139.25300781 -83.5 136.875 C-83.58443359 134.63267578 -83.66886719 132.39035156 -83.75585938 130.08007812 C-84.00991473 123.65341856 -84.33950601 117.23466457 -84.6875 110.8125 C-84.80230713 108.16323486 -84.80230713 108.16323486 -84.91943359 105.46044922 C-85.66667406 89.46278653 -87.27661846 90.84557656 -96.6875 102.8125 Z M159.3125 167.8125 C159.6425 169.689375 159.9725 171.56625 160.3125 173.5 C162.94792053 187.50067155 164.2294813 167.48608262 164.4375 164.625 C164.68886719 161.29341797 164.68886719 161.29341797 164.9453125 157.89453125 C166.86186771 126.14903694 153.70671392 165.00960696 159.3125 167.8125 Z M161.3125 224.8125 C165.28696779 222.8252661 163.51225452 181.8125 161.3125 181.8125 C154.51524037 188.60975963 160.1223523 216.30746787 161.3125 224.8125 Z M149.5625 212.75 C150.3125 217.8125 150.3125 217.8125 146.3125 217.8125 C145.6525 219.7925 144.9925 221.7725 144.3125 223.8125 C142.3325 225.1325 140.3525 226.4525 138.3125 227.8125 C132.62852167 235.39113778 129.59502643 243.68239428 127.3125 252.8125 C125.6625 255.4525 124.0125 258.0925 122.3125 260.8125 C119.4889298 268.04359442 117.21736248 275.17575234 115.25 282.6875 C113.3125 289.8125 113.3125 289.8125 109.3125 297.8125 C108.08435042 300.98455944 106.8977942 304.17298798 105.75 307.375 C103.74503563 312.95228396 101.65021415 318.35783366 99.3125 323.8125 C99.3125 332.51001704 101.05528973 337.80288631 106.3125 344.8125 C98.3125 345.8125 98.3125 345.8125 99.3125 342.8125 C94.31945917 332.82641835 92.90744105 347.20170684 92.3125 351.8125 C98.42821239 351.72755955 102.09356712 349.94385973 107.3125 346.8125 C110.97916667 346.8125 114.64583333 346.8125 118.3125 346.8125 C130.61575497 342.71141501 136.95047572 337.62878937 145.3125 327.8125 C147.2925 325.5025 149.2725 323.1925 151.3125 320.8125 C153.44344182 315.48514545 153.89176642 311.26384413 154.375 305.5625 C154.94699936 298.9632346 155.58073851 292.39835345 156.3125 285.8125 C156.76740443 275.34969818 156.11844917 265.55589026 150.6875 256.375 C146.86970772 249.0408201 143.43920044 239.36181982 152.3125 235.8125 C153.50248751 230.71239906 153.50248751 230.71239906 153.3125 225 C153.3125 218.8125 153.3125 218.8125 154.3125 210.8125 C154.60376325 206.64851431 154.85103912 202.48130024 155.0625 198.3125 C155.18109375 196.1571875 155.2996875 194.001875 155.421875 191.78125 C155.10833519 177.53758426 147.9699634 205.18545113 149.5625 212.75 Z M34.3125 334.8125 C35.6325 336.1325 36.9525 337.4525 38.3125 338.8125 C38.9725 338.8125 39.6325 338.8125 40.3125 338.8125 C40.3125 340.1325 40.3125 341.4525 40.3125 342.8125 C57.58212561 349.60305427 57.58212561 349.60305427 62.3125 336.8125 C56.6307759 335.39206898 57.01738007 337.51738007 60.3125 340.8125 C56.3125 339.8125 56.3125 339.8125 56.3125 336.8125 C50.34251887 335.48583753 44.36715525 334.67745075 38.3125 333.8125 C36.3325 332.8225 34.3525 331.8325 32.3125 330.8125 C26.83888094 330.8125 31.78814256 334.18141064 34.3125 334.8125 Z " fill="#F4B221" transform="translate(652.6875,166.1875)"/>
<path d="M0 0 C3.73678322 -0.00287018 3.73678322 -0.00287018 7.54905701 -0.00579834 C12.75641991 -0.00714833 17.96378631 -0.00353573 23.17114258 0.00488281 C31.18643559 0.01571329 39.20151021 0.00488885 47.21679688 -0.0078125 C52.29036508 -0.00649292 57.36393315 -0.00393472 62.4375 0 C64.84438614 -0.00404846 67.25127228 -0.00809692 69.73109436 -0.01226807 C71.92946457 -0.00596375 74.12783478 0.00034058 76.39282227 0.00683594 C79.30965599 0.00922272 79.30965599 0.00922272 82.28541565 0.01165771 C95.83059726 0.81668688 77.33214446 6.24495834 74.55859375 7.265625 C34.62684077 22.16656486 -25.63614756 52.43407287 -33.44140625 99.265625 C-58.84100252 86.56582686 -68.97741607 53.78762458 -69.87890625 27.515625 C-71.26390858 4.74003115 -72.64504026 39.52144895 -72.44140625 45.265625 C-70.11503637 67.56000303 -58.22899369 87.80964826 -40.75390625 101.828125 C-34.44097122 108.28959968 -32.32727851 114.17008625 -29.2578125 122.53515625 C-20.96447725 144.13349816 0.39826176 154.265625 22.55859375 154.265625 C18.92445083 152.84603792 15.2431669 151.54864601 11.55859375 150.265625 C-31.94414563 130.27787988 -41.77682093 91.2016855 -3.44140625 58.265625 C-1.46140625 56.265 0.51859375 54.264375 2.55859375 52.203125 C17.71141352 37.20814711 37.67306667 24.21983583 57.55859375 16.265625 C64.6057251 13.35485336 71.58969767 10.36291214 78.55859375 7.265625 C85.55859375 4.265625 85.55859375 4.265625 89.55859375 5.265625 C86.91859375 6.255625 84.27859375 7.245625 81.55859375 8.265625 C82.54859375 9.255625 82.54859375 9.255625 83.55859375 10.265625 C82.56859375 10.265625 81.57859375 10.265625 80.55859375 10.265625 C80.55859375 10.925625 80.55859375 11.585625 80.55859375 12.265625 C77.22876086 13.2772198 73.89530914 14.27696859 70.55859375 15.265625 C67.90702389 20.56876473 78.15928249 16.20600479 80.93359375 15.84765625 C88.30863875 15.08454396 140.55859375 10.34157353 140.55859375 18.265625 C142.20859375 18.595625 143.85859375 18.925625 145.55859375 19.265625 C154.90250298 21.88191958 163.64890884 25.44718861 172.55859375 29.265625 C174.53859375 29.925625 176.51859375 30.585625 178.55859375 31.265625 C176.55859375 35.265625 176.55859375 35.265625 173.55859375 36.265625 C172.89859375 37.585625 172.23859375 38.905625 171.55859375 40.265625 C168.87813475 43.06312214 166.14045312 45.80610486 163.37109375 48.515625 C157.85188651 53.92415938 152.59776566 59.40781506 147.55859375 65.265625 C145.99109375 66.956875 144.42359375 68.648125 142.80859375 70.390625 C137.08305093 76.79778006 131.85001385 83.49752952 126.55859375 90.265625 C124.64046875 92.4003125 124.64046875 92.4003125 122.68359375 94.578125 C117.66635284 100.27953512 113.15762187 106.29614551 108.609375 112.375 C98.62666409 125.10583235 99.13140073 118.26674289 94.55859375 105.265625 C89.81773449 97.10512955 85.31611616 91.62744196 77.55859375 86.265625 C76.23859375 85.275625 74.91859375 84.285625 73.55859375 83.265625 C57.61214304 76.43143184 42.34790961 75.63232082 25.24609375 75.765625 C22.24032227 75.74242187 22.24032227 75.74242187 19.17382812 75.71875 C-65.95851484 75.94359607 11.99259737 129.3098865 50.61328125 138.09765625 C58.01680582 139.84619799 65.26198409 142.11662353 72.55859375 144.265625 C77.63833208 145.59197055 82.7220636 146.90306919 87.80859375 148.203125 C107.32783514 153.20950103 126.48536321 158.76624859 145.55859375 165.265625 C150.01359375 166.750625 150.01359375 166.750625 154.55859375 168.265625 C164.08115977 172.46675707 172.69464874 176.40027618 180.55859375 183.265625 C182.53859375 184.8125 182.53859375 184.8125 184.55859375 186.390625 C220.33781243 221.05174309 206.46180821 283.15727101 176.55859375 317.265625 C175.15609375 318.93625 173.75359375 320.606875 172.30859375 322.328125 C145.93962504 349.73797406 110.13157327 352.59996849 74.31640625 352.49609375 C71.72199677 352.49563553 69.12758728 352.49517731 66.45455933 352.4947052 C60.98646587 352.49169399 55.51837318 352.48384176 50.05029297 352.47143555 C41.71839326 352.45320116 33.38660508 352.45092599 25.0546875 352.45117188 C19.72525946 352.44625497 14.39583218 352.4404259 9.06640625 352.43359375 C6.59294708 352.43248093 4.11948792 352.4313681 1.57107544 352.43022156 C-22.14327834 352.3657364 -44.26693087 350.7606037 -67.44140625 345.265625 C-69.11203125 344.9975 -70.78265625 344.729375 -72.50390625 344.453125 C-117.06024351 333.73704389 -139.17957583 281.98169502 -137.44140625 240.265625 C-135.44140625 241.265625 -135.44140625 241.265625 -132.50390625 247.453125 C-126.62682201 258.75521007 -119.40925659 268.29134473 -109.44140625 276.265625 C-107.13140625 278.245625 -104.82140625 280.225625 -102.44140625 282.265625 C-94.2859543 287.5213607 -86.77516651 290.69670016 -77.44140625 293.265625 C-74.92515625 294.090625 -72.40890625 294.915625 -69.81640625 295.765625 C-19.22084722 309.25777408 41.71857727 304.30565521 69.55859375 253.265625 C70.21859375 253.265625 70.87859375 253.265625 71.55859375 253.265625 C71.88859375 250.955625 72.21859375 248.645625 72.55859375 246.265625 C74.55859375 246.265625 74.55859375 246.265625 78.55859375 252.265625 C91.06787913 270.34988259 91.06787913 270.34988259 85.55859375 259.265625 C83.94984375 256.996875 82.34109375 254.728125 80.68359375 252.390625 C74.37026484 243.01628813 74.37026484 243.01628813 81.55859375 237.265625 C82.34916317 231.47505558 82.34916317 231.47505558 75.55859375 230.265625 C74.14449219 229.47285156 72.73039063 228.68007813 71.2734375 227.86328125 C63.69872825 224.42023159 56.30453111 223.18197678 48.12109375 221.703125 C46.48487061 221.4043042 44.84864746 221.1054834 43.1628418 220.79760742 C31.27687685 218.65791296 19.35675264 216.85989764 7.40234375 215.15625 C-6.28032824 213.07092299 -19.29924375 209.53682781 -32.44140625 205.265625 C-35.04015625 204.523125 -35.04015625 204.523125 -37.69140625 203.765625 C-53.96379002 198.62697749 -69.59349057 190.55095634 -82.44140625 179.265625 C-84.42140625 177.533125 -86.40140625 175.800625 -88.44140625 174.015625 C-128.77781475 135.35990018 -137.48745282 72.9921062 -100.44140625 29.265625 C-98.79140625 27.285625 -97.14140625 25.305625 -95.44140625 23.265625 C-66.50706449 -0.70854389 -36.19398179 -0.06218698 0 0 Z " fill="#3D1153" transform="translate(420.44140625,174.734375)"/>
<path d="M0 0 C1.13824219 1.51980469 2.27648437 3.03960937 3.44921875 4.60546875 C6.3125 8.8125 6.3125 8.8125 8.3125 13.8125 C8.9725 13.8125 9.6325 13.8125 10.3125 13.8125 C12.68994938 17.11451302 15.01913913 20.4515401 17.3125 23.8125 C19.2925 26.2875 19.2925 26.2875 21.3125 28.8125 C22.3025 30.235625 23.2925 31.65875 24.3125 33.125 C27.58775604 37.78200468 30.94361697 42.33383882 34.375 46.875 C46.3125 62.83355263 46.3125 62.83355263 46.3125 65.8125 C46.9725 65.8125 47.6325 65.8125 48.3125 65.8125 C51.31483412 70.47766533 54.31441832 75.14460068 57.3125 79.8125 C60.26229559 83.51967553 63.25818387 87.19095373 66.3125 90.8125 C73.1825565 99.29272599 73.1825565 99.29272599 74.3125 103.8125 C81.74213745 96.38286255 88.1581904 88.43437805 94.25 79.875 C100.90689394 70.58822204 108.2129731 62.09865152 115.9375 53.6875 C119.29779837 50.01461573 122.56683151 46.25354512 125.6875 42.375 C131.18107616 35.7678611 137.20898472 29.8561769 143.3125 23.8125 C144.488125 22.430625 145.66375 21.04875 146.875 19.625 C165.03874706 -0.52024674 180.20532743 -1.37525108 205.875 -1.3125 C207.79924805 -1.31056641 209.72349609 -1.30863281 211.70605469 -1.30664062 C223.89955805 -1.26977131 236.05001193 -0.97689145 248.23046875 -0.390625 C254.0238842 -0.22445975 259.75812691 -0.21444737 265.55078125 -0.296875 C267.33838867 -0.31814453 269.12599609 -0.33941406 270.96777344 -0.36132812 C274.52738545 -0.41147256 278.0867742 -0.48253834 281.64550781 -0.57617188 C298.41374991 -0.79720323 304.05988641 16.37826699 293.3125 29.8125 C291.95125 32.0709375 291.95125 32.0709375 290.5625 34.375 C282.83425618 44.92702521 274.96276571 43.07260629 264.3125 38.8125 C247.85109564 40.87017555 252.24776836 58.61462549 253.1484375 72.1875 C253.30767659 77.64712593 253.55367016 110.8125 248.3125 110.8125 C247.6525 113.1225 246.9925 115.4325 246.3125 117.8125 C239.93274621 119.9390846 243.06473444 103.33761812 243.125 98.34765625 C243.13635986 96.25981308 243.14771973 94.17196991 243.15942383 92.02085876 C243.2088403 83.02321656 243.29317095 74.02597022 243.37402344 65.02856445 C243.42792585 58.48911388 243.46443477 51.94972793 243.5 45.41015625 C243.52489502 43.35088394 243.54979004 41.29161163 243.57543945 39.16993713 C245.29220915 29.51788748 245.29220915 29.51788748 240.3125 24.8125 C239.93418212 20.48286209 239.6016006 16.14900893 239.3125 11.8125 C231.19093117 7.75171559 216.00220212 10.62701073 207.0625 10.625 C202.78732422 10.60663086 202.78732422 10.60663086 198.42578125 10.58789062 C194.34009766 10.58499023 194.34009766 10.58499023 190.171875 10.58203125 C187.66045898 10.57792236 185.14904297 10.57381348 182.56152344 10.56958008 C174.22271896 10.33156116 174.22271896 10.33156116 169.3125 15.8125 C166.67380679 18.1774215 164.001506 20.50494669 161.3125 22.8125 C158.49755239 25.53866447 155.70581352 28.28899265 152.9375 31.0625 C151.54789063 32.44953125 150.15828125 33.8365625 148.7265625 35.265625 C145.3508984 38.56274649 145.3508984 38.56274649 143.3125 41.8125 C142.6525 41.8125 141.9925 41.8125 141.3125 41.8125 C140.6525 43.4625 139.9925 45.1125 139.3125 46.8125 C135.65581977 50.82163134 131.98810601 54.82071282 128.3125 58.8125 C125.9361118 62.11527682 123.59927588 65.44705625 121.3125 68.8125 C120.136875 70.25625 118.96125 71.7 117.75 73.1875 C107.77912471 85.82663769 99.00524818 99.27664926 90.3125 112.8125 C85.16119542 120.28745531 79.98572703 127.72096621 74.3125 134.8125 C48.08214712 170.16450787 48.08214712 170.16450787 44.3125 212.8125 C31.1875 209.0625 31.1875 209.0625 34.3125 202.8125 C36.5857832 193.71936719 30.90006124 189.41598147 25.3125 182.8125 C17.8125 172.8125 17.8125 172.8125 21.3125 172.8125 C21.3125 172.1525 21.3125 171.4925 21.3125 170.8125 C32.3125 173.25694444 32.3125 173.25694444 32.3125 176.8125 C33.9625 177.4725 35.6125 178.1325 37.3125 178.8125 C38.6325 179.8025 39.9525 180.7925 41.3125 181.8125 C43.86260705 177.33120006 43.86260705 177.33120006 46.3125 170.8125 C52.61558408 155.42870158 59.72036391 140.88832554 67.9375 126.4375 C72.4891648 117.57373171 68.79316181 114.26277464 63.3125 106.8125 C62.054375 104.915 60.79625 103.0175 59.5 101.0625 C54.90800973 94.20878318 50.11301276 87.52165037 45.3125 80.8125 C43.518125 78.193125 41.72375 75.57375 39.875 72.875 C34.49372562 65.07517533 28.92688795 57.44554429 23.3125 49.8125 C21.30619097 46.98363064 19.30633389 44.15017584 17.3125 41.3125 C11.75009164 33.401199 6.04946642 25.598383 0.3125 17.8125 C-1.151875 15.646875 -2.61625 13.48125 -4.125 11.25 C-10.97172053 2.72162881 -16.53553134 13.42926273 -22.5 19.4375 C-25.38685547 22.33402344 -25.38685547 22.33402344 -28.33203125 25.2890625 C-32.60538582 29.69644643 -36.67890622 34.16883116 -40.6875 38.8125 C-43.6875 41.8125 -46.6875 44.8125 -49.6875 47.8125 C-52.02373365 50.4766261 -54.35716777 53.14321035 -56.6875 55.8125 C-59.35416667 58.47916667 -62.02083333 61.14583333 -64.6875 63.8125 C-68.99743554 68.93518282 -68.99743554 68.93518282 -72.6875 75.8125 C-74.3375 77.4625 -75.9875 79.1125 -77.6875 80.8125 C-78.26500392 88.16334139 -78.57073054 95.27030827 -78.625 102.625 C-78.66689453 104.65333984 -78.70878906 106.68167969 -78.75195312 108.77148438 C-80.35924186 118.29945011 -80.35924186 118.29945011 -76.6875 123.8125 C-76.6875 124.4725 -76.6875 125.1325 -76.6875 125.8125 C-75.3675 126.1425 -74.0475 126.4725 -72.6875 126.8125 C-72.6875 127.8025 -72.6875 128.7925 -72.6875 129.8125 C-71.3675 129.8125 -70.0475 129.8125 -68.6875 129.8125 C-68.3575 131.4625 -68.0275 133.1125 -67.6875 134.8125 C-66.3675 135.1425 -65.0475 135.4725 -63.6875 135.8125 C-63.3575 137.1325 -63.0275 138.4525 -62.6875 139.8125 C-61.6975 140.1425 -60.7075 140.4725 -59.6875 140.8125 C-56.6875 146.8125 -56.6875 146.8125 -56.6875 148.8125 C-54.7075 149.4725 -52.7275 150.1325 -50.6875 150.8125 C-48.398125 151.658125 -46.10875 152.50375 -43.75 153.375 C-34.91858935 156.04496136 -26.87859598 156.8125 -17.6875 156.8125 C-15.7075 157.1425 -13.7275 157.4725 -11.6875 157.8125 C-8.17452431 147.27357293 -10.78201706 133.51251956 -12.6875 122.8125 C-2.7323618 132.7676382 1.95741019 150.2800071 7.25 163.125 C14.4956732 180.53821955 22.29766321 197.52488463 30.7734375 214.37109375 C34.12474104 221.41770881 36.74866219 228.45137804 39.3125 235.8125 C40.6325 238.4525 41.9525 241.0925 43.3125 243.8125 C45.49601942 249.17230118 47.63726128 254.54940564 49.75 259.9375 C50.86246094 262.76570313 51.97492188 265.59390625 53.12109375 268.5078125 C63.90355131 296.56595788 71.93692932 324.33331021 72.5625 354.5625 C74.16445097 372.18396064 78.67679447 353.40176384 81.3125 346.8125 C81.9725 346.4825 82.6325 346.1525 83.3125 345.8125 C84.51325118 342.52670058 85.62247662 339.20726746 86.6875 335.875 C88.98119507 328.72614862 91.50212752 321.77313972 94.3125 314.8125 C95.158125 312.275625 96.00375 309.73875 96.875 307.125 C99.3125 299.8125 99.3125 299.8125 102.3125 292.8125 C104.31749288 287.48104166 106.31670672 282.14740896 108.3125 276.8125 C109.53677574 273.64393922 110.76592706 270.47725788 112 267.3125 C114.88347688 259.91338952 117.74939226 252.55813398 120.1875 245 C122.22875412 239.0563483 124.64187863 233.4961301 127.3125 227.8125 C130.25843526 221.32790169 130.25843526 221.32790169 131.59765625 216.40625 C133.90890831 208.86704056 136.81889612 201.63194214 139.75 194.3125 C141.44962891 190.02765625 141.44962891 190.02765625 143.18359375 185.65625 C148.07925725 174.94813208 152.59761444 174.8083011 154.3125 186.8125 C153.6525 186.8125 152.9925 186.8125 152.3125 186.8125 C149.00356994 198.23325258 149.00356994 198.23325258 150.3125 209.8125 C150.3125 217.8125 150.3125 217.8125 146.3125 217.8125 C146.3125 219.4625 146.3125 221.1125 146.3125 222.8125 C143.3125 225.8125 143.3125 225.8125 138.3125 228.8125 C133.94429381 236.83174421 130.53086408 243.93904369 128.3125 252.8125 C126.6625 255.4525 125.0125 258.0925 123.3125 260.8125 C120.4889298 268.04359442 118.21736248 275.17575234 116.25 282.6875 C114.3125 289.8125 114.3125 289.8125 110.3125 297.8125 C109.08435042 300.98455944 107.8977942 304.17298798 106.75 307.375 C104.74503563 312.95228396 102.65021415 318.35783366 100.3125 323.8125 C100.3125 332.31024677 102.5469893 337.28147859 106.3125 344.8125 C98.3125 345.8125 98.3125 345.8125 97.3125 339.8125 C88.917327 352.4052595 98.9710425 354.1539575 107.3125 345.8125 C108.983125 345.833125 110.65375 345.85375 112.375 345.875 C126.82340631 345.72291151 135.52796463 338.32514068 144.3125 327.8125 C147.2825 324.3475 147.2825 324.3475 150.3125 320.8125 C152.75363055 315.23895851 152.75363055 315.23895851 153.8125 306.5 C155.3125 297.8125 155.3125 297.8125 157.3125 297.8125 C157.66781329 294.4814379 157.99859702 291.1477192 158.3125 287.8125 C158.9725 286.1625 159.6325 284.5125 160.3125 282.8125 C161.61134497 275.28886454 161.61134497 275.28886454 158.3125 270.8125 C156.74427193 261.12344761 157.12871387 251.22727026 157.125 241.4375 C157.11275391 239.684375 157.10050781 237.93125 157.08789062 236.125 C157.07278204 223.33306408 157.07278204 223.33306408 159.3125 227.8125 C159.9725 228.8025 160.6325 229.7925 161.3125 230.8125 C162.3125 235.8125 162.3125 235.8125 162.25 243.625 C162.17930923 250.79360836 162.17930923 250.79360836 165.3125 248.8125 C165.37944861 252.68432779 165.37045416 256.55740193 165.33984375 260.4296875 C165.32759766 262.87246094 165.31535156 265.31523437 165.30273438 267.83203125 C165.26763038 273.06122599 165.22857966 278.29039575 165.18554688 283.51953125 C165.16911133 287.18755859 165.16911133 287.18755859 165.15234375 290.9296875 C165.13550537 293.20472168 165.11866699 295.47975586 165.10131836 297.82373047 C165.38482721 304.52109455 166.50453129 304.42843741 169.3125 298.8125 C171.00375 296.523125 172.695 294.23375 174.4375 291.875 C184.25205399 278.4060908 192.53132723 265.47389247 196.4375 249.1875 C196.94023438 247.10050781 197.44296875 245.01351562 197.9609375 242.86328125 C199.10875184 237.72465577 200.10252525 232.55200667 201.0625 227.375 C204.82560364 207.6187059 203.73927086 236.73672528 203.3125 241.8125 C202 248.1875 202 248.1875 200.3125 253.8125 C199.61125 256.638125 198.91 259.46375 198.1875 262.375 C195.55619748 272.8125 195.55619748 272.8125 193.3125 272.8125 C193.3125 275.1225 193.3125 277.4325 193.3125 279.8125 C191.3125 283.8125 191.3125 283.8125 189.3125 283.8125 C188.9825 285.1325 188.6525 286.4525 188.3125 287.8125 C184.3125 295.8125 184.3125 295.8125 182.3125 295.8125 C181.6525 297.1325 180.9925 298.4525 180.3125 299.8125 C169.57386364 314.8125 169.57386364 314.8125 167.3125 314.8125 C166.6525 316.4625 165.9925 318.1125 165.3125 319.8125 C161.69680582 323.85863396 158.02643645 327.8563503 154.3125 331.8125 C151.3425 335.2775 151.3425 335.2775 148.3125 338.8125 C147.6525 338.8125 146.9925 338.8125 146.3125 338.8125 C145.9825 339.8025 145.6525 340.7925 145.3125 341.8125 C138.89663086 346.99979845 132.71138585 351.5926476 125.47729492 355.57983398 C116.30465866 362.69952897 130.75268529 359.7563276 135.55078125 359.78515625 C140.34125977 359.8325293 140.34125977 359.8325293 145.22851562 359.88085938 C146.93177002 359.87981201 148.63502441 359.87876465 150.38989258 359.87768555 C155.55830905 359.87503421 160.72448374 359.91984319 165.89257812 359.97460938 C180.56968551 361.14431144 180.56968551 361.14431144 191.3125 357.8125 C193.643125 356.94625 195.97375 356.08 198.375 355.1875 C211.91371581 350.07497795 223.64978106 343.34912933 235.3125 334.8125 C236.88 333.905 238.4475 332.9975 240.0625 332.0625 C244.96560872 325.65074244 244.19060099 319.24046754 244.1796875 311.35546875 C244.40257507 303.73140282 248.3125 303.82471833 248.3125 310.8125 C249.3025 310.8125 250.2925 310.8125 251.3125 310.8125 C252.0078125 315.60546875 252.0078125 315.60546875 252.4375 322 C252.5921875 324.20300781 252.746875 326.40601563 252.90625 328.67578125 C253.0403125 330.70089844 253.174375 332.72601563 253.3125 334.8125 C253.51875 337.08125 253.725 339.35 253.9375 341.6875 C255.79491464 372.02527244 255.79491464 372.02527244 236.0715332 371.85009766 C233.90690018 371.83322906 231.74226715 371.81636047 229.51203918 371.79898071 C227.15294907 371.7750827 224.79385895 371.75118469 222.36328125 371.7265625 C219.93848923 371.70532318 217.5136972 371.68408386 215.01542664 371.66220093 C209.86125434 371.61582292 204.70710456 371.56688593 199.55297852 371.515625 C191.73132805 371.43854779 183.90963921 371.37096303 176.08789062 371.3046875 C171.07551549 371.258387 166.06314547 371.21152903 161.05078125 371.1640625 C158.73419998 371.14421295 156.41761871 371.1243634 154.03083801 371.10391235 C147.45720144 371.03562817 140.8853489 370.93438955 134.3125 370.8125 C132.09534271 370.778078 129.87818542 370.74365601 127.59384155 370.70819092 C125.46452179 370.65286194 123.33520203 370.59753296 121.14135742 370.54052734 C119.24794113 370.4972934 117.35452484 370.45405945 115.4037323 370.40951538 C107.35675517 369.46589921 102.43267183 365.9126432 96.3125 360.8125 C89.43544147 359.66632358 84.71772357 359.00205286 81.3125 365.8125 C71.84317072 375.28182928 63.7622677 378.03738385 51.3125 371.8125 C25.63535125 369.07028023 -0.81140263 371.00673139 -26.5703125 371.54492188 C-41.57560075 371.81009544 -56.52131946 371.76305888 -71.5234375 371.33984375 C-105.19290902 370.40207817 -138.88327465 370.7446627 -172.5625 370.8125 C-182.81730957 370.83304636 -193.07211037 370.85223057 -203.32693481 370.86352539 C-209.66131316 370.87094956 -215.99568851 370.88285686 -222.33004761 370.90014648 C-304.14339412 370.99326557 -304.14339412 370.99326557 -337.6875 344.8125 C-340.2553125 342.894375 -340.2553125 342.894375 -342.875 340.9375 C-367.10069155 320.17262153 -386.86526926 239.8125 -368.6875 239.8125 C-366.2125 243.2775 -366.2125 243.2775 -363.6875 246.8125 C-362.0375 248.4625 -360.3875 250.1125 -358.6875 251.8125 C-356.6875 253.8125 -356.6875 253.8125 -356.6875 256.8125 C-355.3675 257.4725 -354.0475 258.1325 -352.6875 258.8125 C-352.3575 259.8025 -352.0275 260.7925 -351.6875 261.8125 C-351.0275 261.8125 -350.3675 261.8125 -349.6875 261.8125 C-349.6875 262.4725 -349.6875 263.1325 -349.6875 263.8125 C-344.83042853 258.95542853 -342.07002938 252.75755164 -338.6875 246.8125 C-337.0375 244.5025 -335.3875 242.1925 -333.6875 239.8125 C-332.800625 238.018125 -331.91375 236.22375 -331 234.375 C-328.6875 229.8125 -328.6875 229.8125 -326.6875 229.8125 C-326.3575 228.1625 -326.0275 226.5125 -325.6875 224.8125 C-317.37046661 207.42233927 -307.54935222 211.08879555 -299.6875 226.8125 C-273.10863601 266.68079599 -189.57161516 305.8368071 -166.6875 244.8125 C-172.48065963 242.76483393 -172.48065963 242.76483393 -179.6875 241.8125 C-181.70875 241.27625 -183.73 240.74 -185.8125 240.1875 C-191.50910213 238.85425269 -196.8636761 238.27055356 -202.6875 237.8125 C-211.56510694 236.52446724 -220.37619797 234.99279481 -229.1875 233.3125 C-231.4253125 232.8896875 -233.663125 232.466875 -235.96875 232.03125 C-241.6875 230.8125 -241.6875 230.8125 -246.6875 228.8125 C-248.24339844 228.50699219 -249.79929687 228.20148438 -251.40234375 227.88671875 C-261.06229316 225.9233144 -304.6875 214.18903533 -304.6875 205.8125 C-306.3375 205.4825 -307.9875 205.1525 -309.6875 204.8125 C-314.6875 200.8125 -314.6875 200.8125 -314.6875 198.8125 C-316.3375 198.1525 -317.9875 197.4925 -319.6875 196.8125 C-321.9975 194.5025 -324.3075 192.1925 -326.6875 189.8125 C-328.6675 188.1109375 -328.6675 188.1109375 -330.6875 186.375 C-364.04040538 156.67006865 -370.49562772 106.8725805 -358.6875 65.8125 C-357.6975 62.0071875 -357.6975 62.0071875 -356.6875 58.125 C-340.97826429 8.54272478 -292.57645832 -1.59497621 -246.85424805 -1.3828125 C-244.45343964 -1.37989197 -242.05263123 -1.37697144 -239.57907104 -1.3739624 C-234.40052648 -1.36638857 -229.22198699 -1.35419622 -224.04346275 -1.33782959 C-215.85292396 -1.31219866 -207.66245025 -1.29924591 -199.47187805 -1.28955078 C-182.10622265 -1.26675918 -164.74062136 -1.22823175 -147.375 -1.1875 C-127.20394597 -1.14032339 -107.03292206 -1.09957006 -86.86182594 -1.07562256 C-78.78338684 -1.06263531 -70.70504087 -1.03762777 -62.62663269 -1.01220703 C-57.69729697 -1.00494524 -52.76796039 -0.99824138 -47.83862305 -0.9921875 C-45.58557846 -0.98185486 -43.33253387 -0.97152222 -41.01121521 -0.96087646 C-37.92269196 -0.96066498 -37.92269196 -0.96066498 -34.77177429 -0.96044922 C-32.98274028 -0.956008 -31.19370626 -0.95156677 -29.3504591 -0.94699097 C-1.74858443 -2.3706578 -1.74858443 -2.3706578 0 0 Z M-206.3125 226.8125 C-202.10400044 227.4781165 -197.89567273 228.14482031 -193.6875 228.8125 C-191.35042969 229.17988281 -189.01335937 229.54726563 -186.60546875 229.92578125 C-174.12122168 232.03279821 -163.76332329 234.319776 -152.6875 240.8125 C-152.0275 240.8125 -151.3675 240.8125 -150.6875 240.8125 C-150.6875 245.8125 -150.6875 245.8125 -155.6875 249.8125 C-155.6875 256.6998632 -152.71764266 259.23230247 -148.6875 264.8125 C-137.08223684 283.28618421 -137.08223684 283.28618421 -145.6875 271.8125 C-148.0078125 268.7496875 -148.0078125 268.7496875 -150.375 265.625 C-154.6875 259.8125 -154.6875 259.8125 -157.6875 254.8125 C-160.81887085 254.48251684 -160.81887085 254.48251684 -160.6875 261.8125 C-161.3475 261.8125 -162.0075 261.8125 -162.6875 261.8125 C-163.38875 263.1325 -164.09 264.4525 -164.8125 265.8125 C-196.66270381 315.12894461 -258.33940117 318.64794224 -309.6875 301.8125 C-311.853125 301.255625 -314.01875 300.69875 -316.25 300.125 C-341.2641881 291.13932078 -356.92451234 271.69685782 -368.6875 248.8125 C-371.98808823 248.8125 -368.83837555 270.04445487 -291.6875 355.8125 C-287.975 356.616875 -287.975 356.616875 -284.1875 357.4375 C-264.20234427 361.6651291 -243.50731649 360.97132323 -223.1796875 360.98046875 C-220.58336456 360.98379715 -217.98704163 360.98712555 -215.31204224 360.99055481 C-209.84751563 360.99559636 -204.38298596 360.997964 -198.91845703 360.99780273 C-190.58230526 360.99999479 -182.24628476 361.01819601 -173.91015625 361.03710938 C-168.58333378 361.04004279 -163.25651069 361.04202793 -157.9296875 361.04296875 C-155.45217987 361.05015427 -152.97467224 361.05733978 -150.42208862 361.06474304 C-121.33354864 361.0264955 -90.57488794 357.88297866 -67.6875 337.8125 C-65.2434375 335.770625 -65.2434375 335.770625 -62.75 333.6875 C-16.66732883 289.31159443 -10.21744076 208.77036796 -73.6875 178.8125 C-76.3275 177.4925 -78.9675 176.1725 -81.6875 174.8125 C-87.33928117 173.09603313 -93.00652193 171.42971274 -98.6875 169.8125 C-103.1425 168.3275 -103.1425 168.3275 -107.6875 166.8125 C-123.59565999 162.17506591 -139.61675332 157.93823245 -155.63671875 153.70703125 C-160.42881886 152.41940324 -165.20869859 151.08559494 -169.9765625 149.7109375 C-175.39711667 148.17753277 -180.88007689 146.86578909 -186.375 145.625 C-234.23774186 134.35297746 -290.36500411 83.66896185 -207 84.3125 C-204.02323242 84.28929687 -204.02323242 84.28929687 -200.98632812 84.265625 C-170.55590773 84.3457314 -143.31075674 93.24867271 -133.4375 125.0625 C-129.6355242 135.38214859 -119.63951801 115.88139267 -115.6875 110.8125 C-109.13541579 102.71339591 -102.41643989 94.76488351 -95.6875 86.8125 C-94.140625 84.894375 -92.59375 82.97625 -91 81 C-87.10138564 76.31036244 -83.02980335 72.0847662 -78.6875 67.8125 C-77.635625 66.595625 -76.58375 65.37875 -75.5 64.125 C-72.07454766 60.25030801 -68.42348682 56.57789234 -64.75 52.9375 C-58.45300955 48.01192166 -58.45300955 48.01192166 -58.6875 44.8125 C-56.7075 43.8225 -56.7075 43.8225 -54.6875 42.8125 C-52.59204746 36.52614237 -61.98855102 36.37881633 -66.6875 34.8125 C-68.605625 34.008125 -70.52375 33.20375 -72.5 32.375 C-81.78309408 28.29003201 -81.78309408 28.29003201 -91.6875 26.8125 C-91.6875 26.1525 -91.6875 25.4925 -91.6875 24.8125 C-112.05864699 20.34078481 -135.42137494 22.3419276 -156 25 C-167.50016089 26.39721581 -161.98083645 23.8994145 -156.625 22.3125 C-151.36855985 21.57566018 -151.36855985 21.57566018 -151.6875 18.8125 C-150.6975 18.4825 -149.7075 18.1525 -148.6875 17.8125 C-149.6775 17.3175 -149.6775 17.3175 -150.6875 16.8125 C-148.0475 15.8225 -145.4075 14.8325 -142.6875 13.8125 C-148.97730737 12.24004816 -153.32388506 15.64566491 -159 18.25 C-162.42195571 19.79176026 -165.87434209 21.27141227 -169.375 22.625 C-197.50928033 34.20970366 -220.55606936 51.24184794 -241.6875 72.8125 C-243.3375 74.4625 -244.9875 76.1125 -246.6875 77.8125 C-272.67912464 114.07242079 -256.57077878 146.02870378 -216.125 160.375 C-197.87812594 167.28401057 -232.25248503 159.04695851 -235.6875 157.8125 C-252.21714042 149.08336405 -259.20684407 137.89786564 -265.6875 120.8125 C-269.59626426 112.99497149 -275.2660164 108.70376936 -281.6875 102.8125 C-299.51137505 82.86040107 -311.56572872 53.44718615 -302.6875 26.8125 C-302.47870131 31.54527031 -302.27344784 36.27821356 -302.08203125 41.01171875 C-301.19637364 54.03351626 -269.91166295 124.70915178 -263.6875 99.8125 C-244.63451792 57.34022745 -199.80328318 31.21304758 -157.6875 15.8125 C-146.06029873 11.55864588 -139.88226083 8.56677966 -155.85327148 8.55371094 C-158.05164169 8.54740662 -160.2500119 8.54110229 -162.51499939 8.53460693 C-166.1253286 8.54067963 -166.1253286 8.54067963 -169.80859375 8.546875 C-173.50949974 8.54400482 -173.50949974 8.54400482 -177.28517151 8.54107666 C-182.5370392 8.53971071 -187.78891021 8.5434355 -193.04077148 8.55175781 C-201.00317217 8.56233812 -208.96534131 8.55193501 -216.92773438 8.5390625 C-222.03385466 8.54038624 -227.1399748 8.54295305 -232.24609375 8.546875 C-234.60237411 8.54282654 -236.95865448 8.53877808 -239.38633728 8.53460693 C-428.53347113 9.05825782 -375.08191219 200.25487676 -206.3125 226.8125 Z M-96.6875 102.8125 C-106.63835995 114.64296683 -106.63835995 114.64296683 -111.5 120.0625 C-117.02210347 126.55909232 -120.86984988 133.17719977 -124.6875 140.8125 C-136.70858619 142.52979803 -138.32195873 134.45743572 -140.6875 123.8125 C-157.30284493 93.3510343 -247.9233292 77.39752477 -242.6875 108.8125 C-229.52299525 125.26813094 -205.15102171 131.07401653 -185.63671875 136.234375 C-177.24868002 138.45943583 -168.90507323 140.83743865 -160.5546875 143.19921875 C-156.57949678 144.29226387 -152.59023032 145.33513799 -148.58984375 146.33203125 C-143.13820212 147.69945162 -137.76419887 149.21938809 -132.375 150.8125 C-123.87166284 153.26969209 -115.37493676 155.10603921 -106.6875 156.8125 C-104.439375 157.534375 -102.19125 158.25625 -99.875 159 C-88.15414664 162.43338129 -82.30714941 163.74770113 -82.89453125 150.47265625 C-82.96736328 148.29349609 -83.04019531 146.11433594 -83.11523438 143.86914062 C-83.24220703 141.56107422 -83.36917969 139.25300781 -83.5 136.875 C-83.58443359 134.63267578 -83.66886719 132.39035156 -83.75585938 130.08007812 C-84.00991473 123.65341856 -84.33950601 117.23466457 -84.6875 110.8125 C-84.80230713 108.16323486 -84.80230713 108.16323486 -84.91943359 105.46044922 C-85.66667406 89.46278653 -87.27661846 90.84557656 -96.6875 102.8125 Z M34.3125 334.8125 C35.6325 336.1325 36.9525 337.4525 38.3125 338.8125 C38.9725 338.8125 39.6325 338.8125 40.3125 338.8125 C40.3125 340.1325 40.3125 341.4525 40.3125 342.8125 C57.58212561 349.60305427 57.58212561 349.60305427 62.3125 336.8125 C56.6307759 335.39206898 57.01738007 337.51738007 60.3125 340.8125 C56.3125 339.8125 56.3125 339.8125 56.3125 336.8125 C50.34251887 335.48583753 44.36715525 334.67745075 38.3125 333.8125 C36.3325 332.8225 34.3525 331.8325 32.3125 330.8125 C26.83888094 330.8125 31.78814256 334.18141064 34.3125 334.8125 Z " fill="#F4EFEE" transform="translate(652.6875,166.1875)"/>
<path d="M0 0 C2.28245685 3.1109448 4.57503021 6.21448035 6.875 9.3125 C12.39627318 16.78074846 17.71327186 24.36361491 23 32 C25.34663383 35.19304973 27.7013926 38.38013786 30.0625 41.5625 C35.25871043 48.58155216 40.1907857 55.70861058 45 63 C46.95070323 65.77621032 48.90969482 68.54660731 50.875 71.3125 C56.40719741 79.10946263 61.71434976 87.03430175 67 95 C67.99 96.32 68.98 97.64 70 99 C68.95251644 106.33238495 66.92820155 110.46725094 63.4375 116.9375 C62.34824219 118.98453125 61.25898437 121.0315625 60.13671875 123.140625 C59.10160156 125.07421875 58.06648437 127.0078125 57 129 C51.48419245 139.577408 51.48419245 139.577408 47.0859375 150.63671875 C44.30561581 158.7727597 31 173.94236721 31 156 C24.23375954 152.67648758 24.23375954 152.67648758 20 155 C19.34 155 18.68 155 18 155 C22.1257927 161.41772883 22.1257927 161.41772883 28.1875 168.4375 C36.72638436 179.54723127 36.72638436 179.54723127 33 187 C37.08095826 193.12143738 42.8136119 199.69528328 41 187 C39.23287671 155.19178082 39.23287671 155.19178082 52 152 C52.66 149.69 53.32 147.38 54 145 C56.31 145.33 58.62 145.66 61 146 C61 145.34 61 144.68 61 144 C61.66 144 62.32 144 63 144 C63.66 142.68 64.32 141.36 65 140 C65.66 140.33 66.32 140.66 67 141 C67 140.34 67 139.68 67 139 C68.32 139.33 69.64 139.66 71 140 C74.77974774 139.29400325 74.77974774 139.29400325 73 135 C77 136 77 136 77 139 C82.63668201 137.38754557 82.63668201 137.38754557 85 131 C85.66 131 86.32 131 87 131 C87.33 129.35 87.66 127.7 88 126 C90.475 125.01 90.475 125.01 93 124 C93.99 122.02 94.98 120.04 96 118 C97.98 117.67 99.96 117.34 102 117 C102 116.34 102 115.68 102 115 C103.32 115 104.64 115 106 115 C106.99 112.69 107.98 110.38 109 108 C109.66 108 110.32 108 111 108 C111 107.34 111 106.68 111 106 C111.66 106 112.32 106 113 106 C113.33 103.69 113.66 101.38 114 99 C115.32 98.67 116.64 98.34 118 98 C118 96.35 118 94.7 118 93 C123.76355628 90.11822186 126.44011672 103.20028433 128 107 C128.66 107.66 129.32 108.32 130 109 C130.33 109.66 130.66 110.32 131 111 C136.53784882 111 133.86453639 105.37443667 133.5 101 C132.66666667 91 132.66666667 91 136 91 C135.01 90.01 134.02 89.02 133 88 C133 85 133 85 139 86 C139 85.34 139 84.68 139 84 C149.1023039 79.95907844 147 83.94424795 147 93 C147.99 93.66 148.98 94.32 150 95 C152 100 152 100 151.9375 105.8125 C151.14137758 111.49996371 151.14137758 111.49996371 155 111 C157 117 157 117 157 122 C157.66 122.66 158.32 123.32 159 124 C155.65384615 133.34615385 155.65384615 133.34615385 154 135 C153.72196533 136.4742041 153.44393066 137.9484082 153.1574707 139.46728516 C152.04135478 144.802324 150.480856 149.46229095 148.48046875 154.5234375 C147.78759766 156.286875 147.09472656 158.0503125 146.38085938 159.8671875 C145.65705078 161.68476563 144.93324219 163.50234375 144.1875 165.375 C143.47529297 167.18484375 142.76308594 168.9946875 142.02929688 170.859375 C139.14210629 178.17750839 136.22139477 185.47269461 133.17578125 192.7265625 C131.245511 197.40495539 129.60041567 202.19875298 128 207 C126.34718628 211.338636 124.6807362 215.67210428 123 220 C122.01 222.64 121.02 225.28 120 228 C119.401875 229.464375 118.80375 230.92875 118.1875 232.4375 C116.36877372 237.06226111 114.69643983 241.74426858 113.0625 246.4375 C110 255 110 255 107.4375 260.625 C104.42710855 267.26329909 102.28701133 274.08179072 100 281 C99.154375 283.02125 98.30875 285.0425 97.4375 287.125 C94.86453202 293.32651256 92.95144696 299.57911001 91 306 C89.6808933 309.33898883 88.34784487 312.67250799 87 316 C86.319375 318.145 85.63875 320.29 84.9375 322.5 C83 328 83 328 80 330 C78.64407346 333.32420699 77.31273219 336.65849988 76 340 C71.05844156 347.41233766 71.05844156 347.41233766 70.625 336.9375 C68.74521633 295.10529918 54.4791026 257.16213233 38 219 C36.8553125 216.15375 36.8553125 216.15375 35.6875 213.25 C32.33296801 205.44876281 28.63569695 197.83249406 24.95703125 190.1796875 C16.69900545 172.92183174 9.06340723 155.4848634 1.80078125 137.78515625 C-8.54424132 111.94920659 -8.54424132 111.94920659 -11 117 C-10.67997926 121.03435979 -10.47317495 125.07915844 -10.375 129.125 C-10.26285156 132.19167969 -10.26285156 132.19167969 -10.1484375 135.3203125 C-13.00407078 151.01319628 -56.51051869 133.97896262 -62 123 C-62.99 122.01 -63.98 121.02 -65 120 C-65 119.34 -65 118.68 -65 118 C-66.65 117.67 -68.3 117.34 -70 117 C-70 115.35 -70 113.7 -70 112 C-71.32 112 -72.64 112 -74 112 C-74.33 111.01 -74.66 110.02 -75 109 C-75.99 108.67 -76.98 108.34 -78 108 C-78 107.34 -78 106.68 -78 106 C-78.66 106 -79.32 106 -80 106 C-80.36719181 98.99626766 -80.5575937 92.07050848 -80.625 85.0625 C-80.68300781 83.08701172 -80.74101563 81.11152344 -80.80078125 79.07617188 C-80.95567379 61.41246447 -80.95567379 61.41246447 -72 54 C-71.01 52.35 -70.02 50.7 -69 49 C-63.85402132 43.09725975 -58.54190006 37.54190006 -53 32 C-51.88625 30.72125 -50.7725 29.4425 -49.625 28.125 C-45.60174722 23.5468158 -41.30898511 19.30898511 -37 15 C-35.95199219 13.79601562 -34.90398438 12.59203125 -33.82421875 11.3515625 C-29.45643039 6.38147442 -24.93112699 1.61298071 -20.3125 -3.125 C-18.65863281 -4.83945313 -17.00476563 -6.55390625 -15.30078125 -8.3203125 C-7.26816624 -15.19290409 -4.68928126 -6.89182245 0 0 Z " fill="#E12658" transform="translate(654,184)"/>
<path d="M0 0 C-1.63024897 4.56685638 -3.21054031 9.1517446 -4.75 13.75 C-5.54921875 16.11671875 -6.3484375 18.4834375 -7.171875 20.921875 C-10.5369075 32.10988904 -9.61392217 33.54972897 -3.125 23.3125 C2.79413974 14 2.79413974 14 5 14 C5 13.01 5 12.02 5 11 C5.66 11 6.32 11 7 11 C7.9075 9.865625 8.815 8.73125 9.75 7.5625 C23.70479857 -7.4183867 43.99892233 -14.45299484 63.8125 -17 C72.33874816 -18.11267538 80.83097564 -19.27620739 89.3125 -20.6875 C94.33305998 -21.3677049 124.57191388 -24.57191388 121 -21 C119.68 -21 118.36 -21 117 -21 C113.52427043 -13.73508894 113.52427043 -13.73508894 123 -15 C123.8515625 -7.34375 123.8515625 -7.34375 123.625 2.5 C123.55152344 7.37265625 123.55152344 7.37265625 123.4765625 12.34375 C123 20 123 20 121 20 C121.65983531 23.33469233 122.32811074 26.66771544 123 30 C123.1799486 33.54145373 123.26566304 37.08851033 123.2746582 40.63452148 C123.28419022 42.7062413 123.29372223 44.77796112 123.30354309 46.91246033 C123.30217598 50.23323387 123.30217598 50.23323387 123.30078125 53.62109375 C123.30506638 55.90821793 123.3093515 58.1953421 123.31376648 60.55177307 C123.31950098 65.37557647 123.32001656 70.19938851 123.31567383 75.02319336 C123.3125014 82.43422982 123.33602962 89.84487189 123.36132812 97.25585938 C123.36359979 101.94010366 123.36430523 106.62434903 123.36328125 111.30859375 C123.372491 113.5366124 123.38170074 115.76463104 123.39118958 118.06016541 C123.34379405 133.65620595 123.34379405 133.65620595 120 137 C119.34 138.32 118.68 139.64 118 141 C116 141 116 141 116.5625 135.5 C117.40237904 128.87712403 117.40237904 128.87712403 114 139 C113.80033995 139.33276675 107 150.33433341 107 143 C104.57836298 142.68377223 104.57836298 142.68377223 104 146 C102.02 146.99 102.02 146.99 100 148 C98.35 150.64 96.7 153.28 95 156 C94 153 94 153 96 150 C95.34 150 94.68 150 94 150 C95 142 95 142 98 140 C98.33 139.01 98.66 138.02 99 137 C101.475 135.02 101.475 135.02 104 133 C106.02930047 126.71816773 106.02930047 126.71816773 101 125 C101 123 101 123 105 121 C106.66886891 118.29497601 106.66886891 118.29497601 102 120 C101.34 118.68 100.68 117.36 100 116 C99.67 115.67 99.34 115.34 99 115 C98.2421389 104.64256502 98 94.37996344 98 84 C96.40371521 86.81989159 96.40371521 86.81989159 97 94 C95 94 95 94 95 88 C94.34 88 93.68 88 93 88 C91.30326096 84.01266325 89.63755366 80.01200646 88 76 C87.34 75.34 86.68 74.68 86 74 C86 73.01 86 72.02 86 71 C85.34 71 84.68 71 84 71 C82.65120751 67.3389918 81.31511123 63.67324171 80 60 C80.90751453 67.005809 80.90751453 67.005809 82.53125 73.8359375 C84.4011502 85.5029212 84.51353459 96.82960541 84.5 108.625 C84.52835938 110.84863281 84.55671875 113.07226562 84.5859375 115.36328125 C84.60299734 129.94091444 82.74309506 142.93746336 79 157 C78.5875 159.083125 78.175 161.16625 77.75 163.3125 C74.52338271 173.79900618 46.90771591 228.93378591 46.65625 199.625 C46.62660156 197.27890625 46.59695313 194.9328125 46.56640625 192.515625 C46.5 185 46.5 185 46.43359375 177.484375 C46.40394531 175.13828125 46.37429688 172.7921875 46.34375 170.375 C46.32505859 168.19648438 46.30636719 166.01796875 46.28710938 163.7734375 C46.77699776 158.66726799 46.77699776 158.66726799 44 159 C43.64920664 154.00119463 43.31752564 149.00102875 43 144 C36.78631241 125.35893723 39.81443326 151.17309367 39.8125 157.375 C39.80025391 159.43492187 39.78800781 161.49484375 39.77539062 163.6171875 C38.26977231 173.35569636 38.26977231 173.35569636 42 179 C44.60505215 186.81515646 42.50096912 192.49709264 40 200 C39.505 202.97 39.505 202.97 39 206 C38.34 206 37.68 206 37 206 C37 207.98 37 209.96 37 212 C33.78201151 212 36.81648595 195.65162649 37 194 C37.45490443 183.53719818 36.80594917 173.74339026 31.375 164.5625 C28.03513506 158.14644367 23.20350156 144 34 144 C34.13277604 138.33488909 34.11802994 132.66543732 34 127 C34.495 123.04 34.495 123.04 35 119 C35.26909769 115.02333417 35.49506708 111.04361219 35.6875 107.0625 C35.79449219 105.01160156 35.90148437 102.96070313 36.01171875 100.84765625 C37.03739816 89.76815553 37.03739816 89.76815553 29 86 C30.32550232 79.95239568 32.55670841 74.70101372 35 69 C35.33 66.36 35.66 63.72 36 61 C37.32 58.69 38.64 56.38 40 54 C41.52692702 49.98878879 41.52692702 49.98878879 39 47 C38.855625 45.288125 38.71125 43.57625 38.5625 41.8125 C38.74949725 36.50338081 38.74949725 36.50338081 35 37 C34.65500351 33.33441233 34.32243003 29.66764154 34 26 C33.01 25.01 32.02 24.02 31 23 C29 19 29 19 29.625 13.125 C30.82042518 6.87361516 30.82042518 6.87361516 26 10 C24.68 10 23.36 10 22 10 C22 10.66 22 11.32 22 12 C20.02 11.67 18.04 11.34 16 11 C15.52565835 14.36893239 15.52565835 14.36893239 19 15 C19 17 19 17 17 18 C17.19141815 24.14816871 17.65738345 30.25976328 18.1015625 36.39453125 C18 41 18 41 14 37 C13.34 37 12.68 37 12 37 C6.29452055 25.47260274 6.29452055 25.47260274 5 19 C1.24822148 18.50970966 1.24822148 18.50970966 1 24 C-0.485 24.495 -0.485 24.495 -2 25 C-2.66 27.31 -3.32 29.62 -4 32 C-4.66 32 -5.32 32 -6 32 C-6 32.66 -6 33.32 -6 34 C-6.99 34.495 -6.99 34.495 -8 35 C-8.99 37.31 -9.98 39.62 -11 42 C-12.32 41.67 -13.64 41.34 -15 41 C-15 41.66 -15 42.32 -15 43 C-17.97 43.99 -17.97 43.99 -21 45 C-21.99 46.98 -22.98 48.96 -24 51 C-26.475 51.495 -26.475 51.495 -29 52 C-29.33 53.65 -29.66 55.3 -30 57 C-30.66 57 -31.32 57 -32 57 C-32.66 58.98 -33.32 60.96 -34 63 C-36.77080591 65.77080591 -40 67.13711647 -40 62 C-43.31622777 62.57836298 -43.31622777 62.57836298 -43 65 C-47 67 -47 67 -50 65 C-50 65.66 -50 66.32 -50 67 C-51.485 67.495 -51.485 67.495 -53 68 C-53.495 68.99 -53.495 68.99 -54 70 C-54.66 70 -55.32 70 -56 70 C-56 70.66 -56 71.32 -56 72 C-58.31 71.67 -60.62 71.34 -63 71 C-63.33 72.65 -63.66 74.3 -64 76 C-68.14232514 80.14232514 -47.26378676 46.00452021 -41 38 C-32.67359541 26.41959821 -24.71257045 14.63251143 -16.859375 2.7265625 C-2.16569208 -19.07600749 18.50380421 -41.63355947 0 0 Z M41 76 C41.33 77.876875 41.66 79.75375 42 81.6875 C44.63542053 95.68817155 45.9169813 75.67358262 46.125 72.8125 C46.37636719 69.48091797 46.37636719 69.48091797 46.6328125 66.08203125 C48.54936771 34.33653694 35.39421392 73.19710696 41 76 Z M43 133 C46.97446779 131.0127661 45.19975452 90 43 90 C36.20274037 96.79725963 41.8098523 124.49496787 43 133 Z " fill="#F26E21" transform="translate(771,258)"/>
<path d="M0 0 C-4.27093884 5.33655052 -4.46457851 7.8919043 -4.53344727 14.63671875 C-4.5650293 16.55097656 -4.59661133 18.46523438 -4.62915039 20.4375 C-4.6272168 22.42136719 -4.6252832 24.40523438 -4.62329102 26.44921875 C-4.67259766 29.47142578 -4.67259766 29.47142578 -4.72290039 32.5546875 C-6.26532198 42.00057127 -6.26532198 42.00057127 -2.56079102 47.44921875 C-2.56079102 48.10921875 -2.56079102 48.76921875 -2.56079102 49.44921875 C-1.24079102 49.77921875 0.07920898 50.10921875 1.43920898 50.44921875 C1.43920898 51.43921875 1.43920898 52.42921875 1.43920898 53.44921875 C2.75920898 53.44921875 4.07920898 53.44921875 5.43920898 53.44921875 C5.76920898 55.09921875 6.09920898 56.74921875 6.43920898 58.44921875 C7.75920898 58.77921875 9.07920898 59.10921875 10.43920898 59.44921875 C10.76920898 60.76921875 11.09920898 62.08921875 11.43920898 63.44921875 C12.42920898 63.77921875 13.41920898 64.10921875 14.43920898 64.44921875 C17.43920898 70.44921875 17.43920898 70.44921875 17.43920898 72.44921875 C20.40920898 73.43921875 20.40920898 73.43921875 23.43920898 74.44921875 C25.72858398 75.29484375 28.01795898 76.14046875 30.37670898 77.01171875 C39.20811964 79.68168011 47.24811301 80.44921875 56.43920898 80.44921875 C59.40920898 80.94421875 59.40920898 80.94421875 62.43920898 81.44921875 C65.95218468 70.91029168 63.34469192 57.14923831 61.43920898 46.44921875 C68.31424877 53.32425853 81.53315385 75.26132902 76.43920898 85.44921875 C77.42920898 85.44921875 78.41920898 85.44921875 79.43920898 85.44921875 C79.76920898 88.41921875 80.09920898 91.38921875 80.43920898 94.44921875 C81.42920898 94.77921875 82.41920898 95.10921875 83.43920898 95.44921875 C83.60420898 97.30546875 83.76920898 99.16171875 83.93920898 101.07421875 C83.63449452 107.25850979 83.63449452 107.25850979 87.43920898 105.44921875 C90.15680673 119.03720748 83.84132719 110.85159749 80.37670898 104.13671875 C79.47823242 102.40808594 78.57975586 100.67945313 77.65405273 98.8984375 C75.43920898 94.44921875 75.43920898 94.44921875 74.43920898 91.44921875 C74.32089023 95.53998289 74.28948703 99.63312698 74.27807617 103.72558594 C74.26846863 106.47964783 74.25886108 109.23370972 74.2489624 112.07122803 C74.24471252 115.09893372 74.24046265 118.1266394 74.23608398 121.24609375 C74.23038391 124.31424377 74.22468384 127.3823938 74.21881104 130.54351807 C74.20932495 137.06758272 74.20281286 143.59165224 74.19897461 150.11572266 C74.19459085 156.81662445 74.18071234 163.51739742 74.15795898 170.21826172 C74.12756212 179.83174588 74.11693136 189.44506693 74.11108398 199.05859375 C74.09256378 203.56371613 74.09256378 203.56371613 74.07366943 208.15985107 C74.07817108 212.3476828 74.07817108 212.3476828 74.08276367 216.62011719 C74.07911804 219.07850037 74.07547241 221.53688354 74.07171631 224.06976318 C74.73022031 235.50100334 78.33688376 240.92563105 86.43920898 248.44921875 C86.76920898 249.10921875 87.09920898 249.76921875 87.43920898 250.44921875 C92.42574897 251.83204076 97.42638448 253.1649414 102.43920898 254.44921875 C104.43920898 255.44921875 104.43920898 255.44921875 104.43920898 257.44921875 C106.08920898 257.77921875 107.73920898 258.10921875 109.43920898 258.44921875 C110.42920898 259.43921875 111.41920898 260.42921875 112.43920898 261.44921875 C113.09920898 261.77921875 113.75920898 262.10921875 114.43920898 262.44921875 C114.43920898 263.76921875 114.43920898 265.08921875 114.43920898 266.44921875 C119.73054147 267.82956636 125.02944558 268.53529492 130.43920898 269.32421875 C148.81924763 273.45972745 123.45561575 272.78619803 117.43920898 271.44921875 C116.77920898 271.11921875 116.11920898 270.78921875 115.43920898 270.44921875 C115.43920898 270.77921875 115.43920898 271.10921875 115.43920898 271.44921875 C113.78920898 271.22234375 112.13920898 270.99546875 110.43920898 270.76171875 C103.32104279 270.31683336 103.33398079 273.9229117 109.43920898 275.44921875 C109.43920898 274.78921875 109.43920898 274.12921875 109.43920898 273.44921875 C121.43920898 273.44921875 121.43920898 273.44921875 115.43920898 276.44921875 C113.77254232 280.11588542 113.77254232 280.11588542 117.43920898 278.44921875 C120.43920898 279.44921875 120.43920898 279.44921875 120.43920898 281.44921875 C121.09920898 281.77921875 121.75920898 282.10921875 122.43920898 282.44921875 C120.44360417 286.44042838 113.03605292 284.81209299 109.22436523 284.86328125 C106.58484863 284.90243652 103.94533203 284.9415918 101.22583008 284.98193359 C98.34687012 285.0123877 95.46791016 285.0428418 92.50170898 285.07421875 C89.57634277 285.10854004 86.65097656 285.14286133 83.63696289 285.17822266 C77.43357572 285.24538824 71.23011741 285.30622856 65.02661133 285.36132812 C58.63099994 285.41995863 52.23547544 285.48898227 45.84008789 285.56835938 C36.66481863 285.67994729 27.48989945 285.75711954 18.31420898 285.82421875 C15.42678955 285.86240723 12.53937012 285.9005957 9.56445312 285.93994141 C5.60046509 285.95613525 5.60046509 285.95613525 1.55639648 285.97265625 C-1.96105225 286.00238525 -1.96105225 286.00238525 -5.54956055 286.03271484 C-13.21693936 285.13994298 -12.6903262 280.87512579 -5.56079102 279.44921875 C-5.97804425 278.19745906 -8.56079102 272.31567757 -8.56079102 277.44921875 C-11.53079102 277.44921875 -14.50079102 277.44921875 -17.56079102 277.44921875 C-17.56079102 280.41921875 -17.56079102 283.38921875 -17.56079102 286.44921875 C-19.33953256 293.56418494 -20.56079102 290.64791238 -20.56079102 284.44921875 C-23.53079102 285.10921875 -26.50079102 285.76921875 -29.56079102 286.44921875 C-34.56079102 287.44921875 -34.56079102 287.44921875 -34.56079102 285.44921875 C-38.74921034 285.26095517 -42.94433429 285.22519039 -47.13696289 285.23803711 C-49.87980591 285.24141586 -52.62264893 285.24479462 -55.4486084 285.24827576 C-59.94367004 285.26846519 -59.94367004 285.26846519 -64.52954102 285.2890625 C-67.57039917 285.29426407 -70.61125732 285.29946564 -73.7442627 285.30482483 C-83.51648589 285.3227357 -93.28860726 285.35392619 -103.06079102 285.38671875 C-112.83296499 285.41424533 -122.60512488 285.43895596 -132.37731934 285.457901 C-138.47588416 285.47025171 -144.57444071 285.48794329 -150.67297363 285.51121521 C-153.41581665 285.51774612 -156.15865967 285.52427704 -158.98461914 285.53100586 C-162.63530457 285.54338539 -162.63530457 285.54338539 -166.35974121 285.55601501 C-180.10744327 285.27372523 -163.56833371 284.28659237 -161.27392578 284.27563477 C-157.90265221 284.25540001 -157.90265221 284.25540001 -154.46327209 284.23475647 C-152.0011174 284.22431808 -149.53896271 284.2138797 -147.00219727 284.203125 C-141.83878427 284.1701624 -136.67537285 284.13695119 -131.51196289 284.10351562 C-123.3335082 284.05623566 -115.15505878 284.01187202 -106.9765625 283.97241211 C-99.11003463 283.93253383 -91.24364706 283.88099693 -83.37719727 283.828125 C-79.73558311 283.81550377 -79.73558311 283.81550377 -76.020401 283.80262756 C-46.99744845 283.59272821 -16.40993374 280.44221864 6.43920898 260.44921875 C7.90358398 259.25296875 9.36795898 258.05671875 10.87670898 256.82421875 C50.345562 218.97737339 66.1612222 138.26010823 10.06420898 108.01171875 C0.56831072 102.75047782 12.25746838 104.09693633 17.43920898 103.44921875 C16.11920898 102.78921875 14.79920898 102.12921875 13.43920898 101.44921875 C12.77920898 99.46921875 12.11920898 97.48921875 11.43920898 95.44921875 C10.77920898 95.44921875 10.11920898 95.44921875 9.43920898 95.44921875 C2.78920898 82.84921875 2.78920898 82.84921875 1.43920898 77.44921875 C1.87233398 80.63578125 1.87233398 80.63578125 2.31420898 83.88671875 C2.62760397 100.33995535 -5.60238464 82.20972866 -5.81713867 75.81005859 C-5.95676649 67.04549512 -6.06449321 58.28243818 -6.13061523 49.51708984 C-6.16729708 45.73236729 -6.22188582 41.9477745 -6.29467773 38.16357422 C-6.39810921 32.70363161 -6.44255463 27.24592777 -6.47485352 21.78515625 C-6.53600342 16.87455322 -6.53600342 16.87455322 -6.59838867 11.86474609 C-5.20443665 0.55897525 9.66636296 -9.97995193 0 0 Z " fill="#D2C0D7" transform="translate(578.560791015625,242.55078125)"/>
<path d="M0 0 C-2.64 0.99 -5.28 1.98 -8 3 C-7.01 3.99 -7.01 3.99 -6 5 C-6.99 5 -7.98 5 -9 5 C-9 5.66 -9 6.32 -9 7 C-12.32983289 8.0115948 -15.66328461 9.01134359 -19 10 C-21.65156986 15.30313973 -11.39931126 10.94037979 -8.625 10.58203125 C-1.249955 9.81891896 51 5.07594853 51 13 C52.65 13.33 54.3 13.66 56 14 C65.34390923 16.61629458 74.09031509 20.18156361 83 24 C84.98 24.66 86.96 25.32 89 26 C87 30 87 30 84 31 C83.34 32.32 82.68 33.64 82 35 C79.319541 37.79749714 76.58185937 40.54047986 73.8125 43.25 C68.29329276 48.65853438 63.03917191 54.14219006 58 60 C56.4325 61.69125 54.865 63.3825 53.25 65.125 C47.52445718 71.53215506 42.2914201 78.23190452 37 85 C35.081875 87.1346875 35.081875 87.1346875 33.125 89.3125 C28.10775909 95.01391012 23.59902812 101.03052051 19.05078125 107.109375 C9.06807034 119.84020735 9.57280698 113.00111789 5 100 C0.25914074 91.83950455 -4.24247759 86.36181696 -12 81 C-13.32 80.01 -14.64 79.02 -16 78 C-30.74091036 71.68246699 -45.3317208 70.40439263 -61.125 70.3125 C-87.63454912 69.98680561 -87.63454912 69.98680561 -72.4375 68.25 C-64.95139888 67.90974037 -64.95139888 67.90974037 -67 62 C-65.70359612 58.11078836 -61.34597047 55.30805906 -59 60 C-53.56982236 58.30450777 -53.56982236 58.30450777 -50 53 C-49.01 53 -48.02 53 -47 53 C-47 33.56286447 -89.27265411 55.30503701 -98 61 C-102 62 -102 62 -97 57 C-95.77667969 55.75347656 -94.55335938 54.50695312 -93.29296875 53.22265625 C-91.93816406 51.84980469 -90.58335937 50.47695312 -89.1875 49.0625 C-87.84042969 47.69222656 -86.49335938 46.32195312 -85.10546875 44.91015625 C-70.3741419 30.87965371 -50.94903463 18.57961385 -32 11 C-24.95286865 8.08922836 -17.96889608 5.09728714 -11 2 C-4 -1 -4 -1 0 0 Z " fill="#ED2C4B" transform="translate(510,180)"/>
<path d="M0 0 C2.97 0.99 5.94 1.98 9 3 C18.52256602 7.20113207 27.13605499 11.13465118 35 18 C36.98 19.546875 36.98 19.546875 39 21.125 C41.64 23.6825 41.64 23.6825 46 124 C45.13375 125.588125 44.2675 127.17625 43.375 128.8125 C40.07719578 134.85847441 36.41881993 139.73950009 32 145 C30.35 146.98 28.7 148.96 27 151 C22 157 22 157 20 157 C19.67 157.99 19.34 158.98 19 160 C17.02 161.32 15.04 162.64 13 164 C10.03 166.475 10.03 166.475 7 169 C0.44971001 166.81657 10.22576859 161.70122532 13 159 C13.33 158.01 13.66 157.02 14 156 C14.66 156 15.32 156 16 156 C16.33 154.35 16.66 152.7 17 151 C18.155 148.73125 19.31 146.4625 20.5 144.125 C25.4868523 135.659762 25.4868523 135.659762 23 131 C23 124 23 124 24.5 119.4375 C28.1887049 103.60680812 28.6406283 73.82031415 11 65 C11 64.34 11 63.68 11 63 C9.35 62.34 7.7 61.68 6 61 C4.185 60.030625 2.37 59.06125 0.5 58.0625 C-6.08416914 54.96034339 -11.86725241 53.35861859 -19 52 C-20.8975 51.608125 -22.795 51.21625 -24.75 50.8125 C-37.47708282 49.38618899 -50.63782788 48.84324143 -63.2734375 51.140625 C-73.4570271 52.99218675 -33.63024922 37.72604984 -25 36 C-27.07784315 21.45509797 -42.83782823 24.62105123 -54.875 24.875 C-77.21409214 25.30352304 -77.21409214 25.30352304 -60 21 C-55 21 -50 21 -45 21 C-44.66666667 17.33333333 -44.66666667 17.33333333 -55 19 C-55.495 15.535 -55.495 15.535 -56 12 C-69.33865829 6.07170743 -79.81468907 5.66738089 -94.21875 5.44140625 C-108.13541113 4.37885037 -58.41835939 -11.13180338 -48 -12 C-48 -15.67184652 -6.27455417 -2.12886659 0 0 Z " fill="#E83A40" transform="translate(566,340)"/>
<path d="M0 0 C5.87708424 11.30208507 13.09464966 20.83821973 23.0625 28.8125 C25.3725 30.7925 27.6825 32.7725 30.0625 34.8125 C38.21795195 40.0682357 45.72873974 43.24357516 55.0625 45.8125 C57.57875 46.6375 60.095 47.4625 62.6875 48.3125 C108.36576543 60.49337078 153.98566681 58.15420897 188.6875 23.125 C194.0625 17.8125 194.0625 17.8125 198.0625 17.8125 C199.0525 15.3375 199.0525 15.3375 200.0625 12.8125 C209.87362963 -3.53938271 199.49923795 27.80994321 197.0625 32.125 C192.26583786 38.94525398 186.80716584 44.77473896 181.0625 50.8125 C179.598125 52.524375 178.13375 54.23625 176.625 56 C171.23199962 61.68850725 165.35005026 66.14174838 159.0625 70.8125 C157.474375 72.153125 155.88625 73.49375 154.25 74.875 C129.99290998 93.28700809 95.34618743 106.24198001 65.0625 97.8125 C63.391875 97.544375 61.72125 97.27625 60 97 C26.11713199 88.8509558 3.83928412 53.91305637 0 0 Z " fill="#F2503E" transform="translate(287.9375,422.1875)"/>
<path d="M0 0 C0.31911258 13.48650804 0.31911258 13.48650804 1.84375 26.87109375 C3.15749369 34.75885325 3.11475591 42.44711132 3.125 50.4375 C3.14175781 53.48484375 3.15851563 56.5321875 3.17578125 59.671875 C2.74573296 67.97689365 1.05120484 69.7842621 -2.1875 61.6875 C-3.70500932 62.96742069 -3.70500932 62.96742069 -3.15234375 67.0625 C-3.09236717 79.40053909 -3.1939957 85.58752847 -14.1875 92.6875 C-18.1784375 95.4409375 -18.1784375 95.4409375 -22.25 98.25 C-46.64211728 113.6875 -46.64211728 113.6875 -57.1875 113.6875 C-57.1875 114.3475 -57.1875 115.0075 -57.1875 115.6875 C-67.3487738 116.11260256 -77.51739572 116.01628057 -87.68676758 116.00317383 C-92.86235462 116.00000774 -98.03737415 116.02347604 -103.21289062 116.04882812 C-108.03237305 116.04979492 -108.03237305 116.04979492 -112.94921875 116.05078125 C-115.93944092 116.05376221 -118.92966309 116.05674316 -122.01049805 116.05981445 C-134.99554125 115.2771501 -120.10974797 109.11648173 -115.1875 105.6875 C-107.82508519 101.03478514 -107.82508519 101.03478514 -102.1875 94.6875 C-99.7125 93.6975 -99.7125 93.6975 -97.1875 92.6875 C-87.00892743 83.83470563 -87.00892743 83.83470563 -78.1875 73.6875 C-77.5275 73.6875 -76.8675 73.6875 -76.1875 73.6875 C-75.5275 72.0375 -74.8675 70.3875 -74.1875 68.6875 C-72.5375 67.3675 -70.8875 66.0475 -69.1875 64.6875 C-67.74375 62.91375 -66.3 61.14 -64.8125 59.3125 C-59.47880692 52.82557598 -55.25199045 48.37566348 -47.1875 45.6875 C-42.33454292 39.61877185 -42.33454292 39.61877185 -41.1875 35.6875 C-33.43765421 32.78130783 -29.26491287 33.07244191 -36.1875 37.6875 C-36.5175 38.6775 -36.8475 39.6675 -37.1875 40.6875 C-37.8475 40.6875 -38.5075 40.6875 -39.1875 40.6875 C-39.1875 42.3375 -39.1875 43.9875 -39.1875 45.6875 C-43.11059792 49.76295123 -47.09662679 53.78048626 -51.1875 57.6875 C-35.62883967 44.35150543 -19.92430353 24.76631235 -14.1875 4.6875 C-13.5275 4.6875 -12.8675 4.6875 -12.1875 4.6875 C-11.8575 3.0375 -11.5275 1.3875 -11.1875 -0.3125 C-10.5275 -2.601875 -9.8675 -4.89125 -9.1875 -7.25 C-2.83752543 -29.67334768 -0.35954991 -14.91871579 0 0 Z " fill="#0A6F27" transform="translate(901.1875,410.3125)"/>
<path d="M0 0 C-0.66 0 -1.32 0 -2 0 C-2.33 0.99 -2.66 1.98 -3 3 C-13.16315301 6.81118238 -14.99162509 7.41004989 -22 -1 C-22.99 -1 -23.98 -1 -25 -1 C-25 -1.66 -25 -2.32 -25 -3 C-30.70599121 -3 -35.21036228 -2.60518114 -28 1 C-21.75 11 -21.75 11 -26 11 C-25.11785113 13.35355339 -25.11785113 13.35355339 -22 14 C-22.33 15.65 -22.66 17.3 -23 19 C-22.34 19 -21.68 19 -21 19 C-18.07894737 45.28947368 -18.07894737 45.28947368 -29 30 C-29.51376917 34.31566103 -29.7899489 38.65894397 -30 43 C-31.1229895 48.51285753 -42 78.9855452 -42 71 C-47.40533961 68.70725472 -47.40533961 68.70725472 -55 67 C-55 66.01 -55 65.02 -55 64 C-55.66 64 -56.32 64 -57 64 C-57 57 -57 57 -56 53 C-55.90958507 46.26408795 -57.55102558 -1.40491259 -61.1875 18.5 C-61.83563454 21.18193603 -70 44.50482815 -70 30 C-72.77373058 29.69050777 -72.77373058 29.69050777 -74 35 C-86.55434783 51.88858696 -86.55434783 51.88858696 -95 54 C-95.99 55.98 -95.99 55.98 -97 58 C-109 70 -109 70 -113 70 C-113 70.66 -113 71.32 -113 72 C-126.84297958 80.48440684 -139.99687906 85.79937581 -156 89 C-157.98 89.495 -157.98 89.495 -160 90 C-165.28477548 89.81391636 -205.16999816 85.56989787 -187.875 84.6875 C-160.42841531 82.56135612 -134.90274378 71.98608186 -114 54 C-111.710625 52.2675 -109.42125 50.535 -107.0625 48.75 C-102.44032168 44.98681057 -60.02962792 -7 -71 -7 C-71.66 -5.35 -72.32 -3.7 -73 -2 C-76 3 -76 3 -79 2 C-77.10071564 -1.0647543 -75.09187696 -4.06332658 -73 -7 C-72.67 -7.66 -72.34 -8.32 -72 -9 C-71.34 -9 -70.68 -9 -70 -9 C-69.67 -11.31 -69.34 -13.62 -69 -16 C-67 -16 -67 -16 -63 -10 C-50.49071462 8.08425759 -50.49071462 8.08425759 -56 -3 C-57.60875 -5.26875 -59.2175 -7.5375 -60.875 -9.875 C-67.18832891 -19.24933687 -67.18832891 -19.24933687 -60 -25 C-59.67 -25.99 -59.34 -26.98 -59 -28 C-39.19143138 -32.95214216 7.60574946 -30.42299784 0 0 Z " fill="#722079" transform="translate(562,437)"/>
<path d="M0 0 C-1.32 0.33 -2.64 0.66 -4 1 C-4.33 1.99 -4.66 2.98 -5 4 C-6.98 5.32 -8.96 6.64 -11 8 C-29.86240913 31.57801141 -21.94942808 70.45133449 -11 96 C-9.783125 98.990625 -8.56625 101.98125 -7.3125 105.0625 C-5.63509433 109.08194378 -3.94779968 113.10440063 -2 117 C-1.08749998 123.38750012 -0.62761599 129.49378138 -0.4375 135.9375 C-0.35371094 138.00902344 -0.26992188 140.08054687 -0.18359375 142.21484375 C-2.87362588 157.98177848 -46.47210372 141.05579257 -52 130 C-52.99 129.01 -53.98 128.02 -55 127 C-55 126.34 -55 125.68 -55 125 C-56.65 124.67 -58.3 124.34 -60 124 C-60 122.35 -60 120.7 -60 119 C-61.32 119 -62.64 119 -64 119 C-64.33 118.01 -64.66 117.02 -65 116 C-65.99 115.67 -66.98 115.34 -68 115 C-68 114.34 -68 113.68 -68 113 C-68.66 113 -69.32 113 -70 113 C-70.36719181 105.99626766 -70.5575937 99.07050848 -70.625 92.0625 C-70.68300781 90.08701172 -70.74101563 88.11152344 -70.80078125 86.07617188 C-70.95567379 68.41246447 -70.95567379 68.41246447 -62 61 C-61.01 59.35 -60.02 57.7 -59 56 C-53.85402132 50.09725975 -48.54190006 44.54190006 -43 39 C-41.88625 37.72125 -40.7725 36.4425 -39.625 35.125 C-35.60174722 30.5468158 -31.30898511 26.30898511 -27 22 C-25.95457031 20.7934375 -24.90914062 19.586875 -23.83203125 18.34375 C-19.45231793 13.379182 -14.85957203 8.69016681 -10.1875 4 C-8.51042969 2.30875 -6.83335937 0.6175 -5.10546875 -1.125 C1.46539995 -7.32699977 1.46539995 -7.32699977 0 0 Z " fill="#4B0B5B" transform="translate(644,177)"/>
<path d="M0 0 C3.20136657 5.77869497 7.05582252 10.54340639 11.46484375 15.44921875 C12.68171875 16.81046875 13.89859375 18.17171875 15.15234375 19.57421875 C38.8366096 40.855733 71.69244395 48.76464906 102.7265625 49.078125 C108.48906145 49.52943366 55.82413989 73.42971755 35.65234375 71.94921875 C20.63320121 68.814789 7.06923297 62.41337038 -6.53515625 55.44921875 C-4.22515625 57.09921875 -1.91515625 58.74921875 0.46484375 60.44921875 C-5.89814935 62.57021645 -30.53515625 49.59681501 -30.53515625 42.44921875 C-31.85515625 41.78921875 -33.17515625 41.12921875 -34.53515625 40.44921875 C-41.31757823 31.97119127 -35.89952264 27.61586609 -30.53515625 19.44921875 C-28.57208044 16.34804905 -26.61413883 13.24362593 -24.66015625 10.13671875 C-23.63277344 8.51636719 -22.60539062 6.89601563 -21.546875 5.2265625 C-18.82236651 0.90480649 -16.14467653 -3.44637783 -13.47265625 -7.80078125 C-5.76951355 -19.04981503 -4.39685931 -8.53004958 0 0 Z " fill="#671A71" transform="translate(348.53515625,403.55078125)"/>
<path d="M0 0 C3.5842408 0.00068733 3.5842408 0.00068733 7.2408905 0.00138855 C12.31611627 0.00441894 17.39134104 0.01232846 22.46655273 0.0246582 C30.22057411 0.04279938 37.97447535 0.04516875 45.72851562 0.04492188 C50.65234478 0.04984135 55.57617312 0.05567152 60.5 0.0625 C63.9787542 0.06416924 63.9787542 0.06416924 67.52778625 0.06587219 C70.7949781 0.07544197 70.7949781 0.07544197 74.12817383 0.08520508 C76.03488358 0.08901688 77.94159332 0.09282867 79.90608215 0.09675598 C109.58483583 0.80866002 87.72884412 14.12601636 73.48046875 28.23046875 C72.16046875 29.55046875 70.84046875 30.87046875 69.48046875 32.23046875 C61.64315616 30.33051418 54.87110442 27.51519572 47.48046875 24.23046875 C44.51046875 23.24046875 41.54046875 22.25046875 38.48046875 21.23046875 C30.48046875 18.23046875 30.48046875 18.23046875 30.48046875 16.23046875 C17.25854345 14.61803884 3.94892007 15.18052559 -9.33203125 15.66796875 C-11.74515625 15.75433594 -14.15828125 15.84070313 -16.64453125 15.9296875 C-22.38785848 16.18095807 -28.10066952 16.54584049 -33.83203125 16.98046875 C-44.34287797 17.3733976 -40.85388592 14.46398082 -34.51953125 13.35546875 C-28.85793825 12.88149858 -28.85793825 12.88149858 -28.51953125 7.23046875 C-27.19953125 6.57046875 -25.87953125 5.91046875 -24.51953125 5.23046875 C-28.64334283 6.99781657 -32.75420272 8.79696507 -36.83203125 10.66796875 C-40.25398696 12.20972901 -43.70637334 13.68938102 -47.20703125 15.04296875 C-75.33733074 26.62603324 -98.39566502 43.65448647 -119.51953125 65.23046875 C-120.83953125 66.55046875 -122.15953125 67.87046875 -123.51953125 69.23046875 C-152.28427015 109.50110321 -129.1164991 138.40024543 -87.51953125 153.23046875 C-86.70674358 154.04325642 -121.25658242 147.32517252 -131.51953125 137.23046875 C-137.73630687 129.51309211 -141.01889723 121.45941299 -144.51953125 112.23046875 C-148.2608438 104.74784364 -153.34986298 100.85575452 -159.51953125 95.23046875 C-165.33010413 88.79172583 -201.12884246 14.23046875 -179.51953125 14.23046875 C-179.38156662 17.85433981 -179.28624292 21.4798376 -179.20703125 25.10546875 C-178.35601503 47.03847761 -143.51953125 101.46189328 -143.51953125 93.23046875 C-122.80902401 46.82359141 -74.957182 20.12754568 -28.95703125 3.91796875 C-19.37975813 0.27590714 -11.23115026 -0.03446672 0 0 Z " fill="#F4866C" transform="translate(530.51953125,174.76953125)"/>
<path d="M0 0 C13.5524426 18.70597437 13.5524426 18.70597437 31.9375 31.3125 C31.9375 31.9725 31.9375 32.6325 31.9375 33.3125 C33.5875 33.9725 35.2375 34.6325 36.9375 35.3125 C53.61370045 43.43680278 53.61370045 43.43680278 39.72583008 43.44189453 C36.05620903 43.44662277 36.05620903 43.44662277 32.31245422 43.45144653 C29.63766464 43.4494223 26.96287506 43.44739807 24.20703125 43.4453125 C21.48877609 43.44626923 18.77052094 43.44722595 15.96989441 43.44821167 C10.2002256 43.44889438 4.43055602 43.4470338 -1.33911133 43.44287109 C-10.19288862 43.43753442 -19.04661495 43.44280779 -27.90039062 43.44921875 C-33.48958345 43.44855778 -39.07877623 43.44727623 -44.66796875 43.4453125 C-47.33263718 43.44733673 -49.9973056 43.44936096 -52.74272156 43.45144653 C-55.20489639 43.44829437 -57.66707123 43.44514221 -60.20385742 43.44189453 C-63.46482552 43.44070114 -63.46482552 43.44070114 -66.79167175 43.43948364 C-77.86371505 43.17273839 -79.29123549 42.35754421 -67.4375 36.625 C-60.64784938 33.12883662 -56.32906023 30.57906023 -51.0625 25.3125 C-49.433125 23.806875 -47.80375 22.30125 -46.125 20.75 C-35.30312273 9.12650219 -28.39905756 -4.31835693 -23.625 -19.375 C-17.8829542 -31.2792413 -4.7563279 -6.65885906 0 0 Z " fill="#116D2F" transform="translate(648.0625,482.6875)"/>
<path d="M0 0 C4.47626953 0.00773438 4.47626953 0.00773438 9.04296875 0.015625 C12.13800781 0.03625 15.23304688 0.056875 18.421875 0.078125 C23.13404297 0.08585938 23.13404297 0.08585938 27.94140625 0.09375 C57.89725795 0.19780854 57.89725795 0.19780854 43.734375 2.578125 C30.72763569 4.95844331 18.87783251 8.15876902 7.171875 14.328125 C5.295 15.00875 3.418125 15.689375 1.484375 16.390625 C-4.27221263 18.32092775 -4.27221263 18.32092775 -10.828125 22.328125 C-13.365 23.565625 -15.901875 24.803125 -18.515625 26.078125 C-28.15441576 31.00622854 -36.52208576 36.40642564 -44.828125 43.328125 C-46.828125 43.328125 -46.828125 43.328125 -47.828125 38.328125 C-51.07662477 40.05038996 -51.07662477 40.05038996 -51.828125 43.328125 C-72.828125 45.66145833 -72.828125 45.66145833 -72.828125 40.328125 C-74.808125 39.668125 -76.788125 39.008125 -78.828125 38.328125 C-74.60032149 17.18910743 -45.8768165 8.53447832 -27.828125 3.328125 C-25.14671387 2.53776855 -25.14671387 2.53776855 -22.41113281 1.73144531 C-14.77801564 0.10426991 -7.8043648 -0.02657975 0 0 Z " fill="#6D1A74" transform="translate(455.828125,174.671875)"/>
<path d="M0 0 C2.33333333 0.33333333 2.33333333 0.33333333 2 -2 C6.68750456 -2 6 3.55201512 6 7 C6.99 7.33 7.98 7.66 9 8 C9.99 10.97 10.98 13.94 12 17 C15.4974088 24.150258 17.79768935 27.83140779 24 33 C25.32 34.98 26.64 36.96 28 39 C35.95261746 46.95261746 44.39959634 53.20235029 53.80078125 59.2734375 C88.28988849 81.66729504 32.66809211 74.33404606 18 67 C16.68 64.36 15.36 61.72 14 59 C13.01 58.01 12.02 57.02 11 56 C11 55.34 11 54.68 11 54 C9.35 53.67 7.7 53.34 6 53 C6 51.35 6 49.7 6 48 C4.68 48 3.36 48 2 48 C1.505 46.515 1.505 46.515 1 45 C0.01 44.67 -0.98 44.34 -2 44 C-2 43.34 -2 42.68 -2 42 C-2.66 42 -3.32 42 -4 42 C-4.17609529 34.83978627 -4.23034469 27.72207378 -4.1875 20.5625 C-4.18685547 18.51998047 -4.18621094 16.47746094 -4.18554688 14.37304688 C-4.17221258 9.92087323 0 -8.03016174 0 0 Z " fill="#7A358D" transform="translate(578,248)"/>
<path d="M0 0 C-0.680625 2.990625 -1.36125 5.98125 -2.0625 9.0625 C-4 17 -4 17 -6 21 C-6.21156054 24.89031434 -6.29488037 28.78784904 -6.31884766 32.68383789 C-6.33871735 35.13902359 -6.35858704 37.59420929 -6.37905884 40.12379456 C-6.39061005 42.79641891 -6.40216125 45.46904327 -6.4140625 48.22265625 C-6.43342865 50.97185898 -6.4527948 53.72106171 -6.4727478 56.55357361 C-6.53268889 65.38985035 -6.5788935 74.22614131 -6.625 83.0625 C-6.66318393 88.93425057 -6.7022359 94.80599557 -6.7421875 100.67773438 C-6.81330885 111.56516079 -6.88151128 122.45258545 -6.93994141 133.34008789 C-6.95406067 135.76361603 -6.96817993 138.18714417 -6.98272705 140.68411255 C-6.99469178 145.75172632 -6.97807177 150.81945774 -6.93865967 155.88693237 C-6.9207135 158.3637149 -6.90276733 160.84049744 -6.88427734 163.39233398 C-6.8597348 165.62506577 -6.83519226 167.85779755 -6.80990601 170.15818787 C-7.33675284 183.5773041 -9.31809044 166.61566601 -9.34375 163.625 C-9.37339844 161.27890625 -9.40304687 158.9328125 -9.43359375 156.515625 C-9.5 149 -9.5 149 -9.56640625 141.484375 C-9.59605469 139.13828125 -9.62570312 136.7921875 -9.65625 134.375 C-9.67494141 132.19648438 -9.69363281 130.01796875 -9.71289062 127.7734375 C-9.22300224 122.66726799 -9.22300224 122.66726799 -12 123 C-12.35079336 118.00119463 -12.68247436 113.00102875 -13 108 C-19.21368759 89.35893723 -16.18556674 115.17309367 -16.1875 121.375 C-16.19974609 123.43492187 -16.21199219 125.49484375 -16.22460938 127.6171875 C-17.73022769 137.35569636 -17.73022769 137.35569636 -14 143 C-11.39494785 150.81515646 -13.49903088 156.49709264 -16 164 C-16.33 165.98 -16.66 167.96 -17 170 C-17.66 170 -18.32 170 -19 170 C-19 171.98 -19 173.96 -19 176 C-22.21798849 176 -19.18351405 159.65162649 -19 158 C-18.54509557 147.53719818 -19.19405083 137.74339026 -24.625 128.5625 C-27.96486494 122.14644367 -32.79649844 108 -22 108 C-21.86722396 102.33488909 -21.88197006 96.66543732 -22 91 C-21.67 88.36 -21.34 85.72 -21 83 C-20.73090231 79.02333417 -20.50493292 75.04361219 -20.3125 71.0625 C-20.20550781 69.01160156 -20.09851563 66.96070313 -19.98828125 64.84765625 C-18.96260184 53.76815553 -18.96260184 53.76815553 -27 50 C-24.11451792 35.57258959 -16.55822818 22.02140958 -10 9 C-7.04193045 2.60930429 -4.12525517 -3.79878258 -1.22265625 -10.21484375 C5.53575595 -24.76502818 0.90918044 -3.69942384 0 0 Z M-15 40 C-14.67 41.876875 -14.34 43.75375 -14 45.6875 C-11.36457947 59.68817155 -10.0830187 39.67358262 -9.875 36.8125 C-9.62363281 33.48091797 -9.62363281 33.48091797 -9.3671875 30.08203125 C-7.45063229 -1.66346306 -20.60578608 37.19710696 -15 40 Z M-13 97 C-9.02553221 95.0127661 -10.80024548 54 -13 54 C-19.79725963 60.79725963 -14.1901477 88.49496787 -13 97 Z " fill="#EF9487" transform="translate(827,294)"/>
<path d="M0 0 C-25.78815357 12.48474102 -47.00338989 27.57540061 -67 48 C-68.32 49.32 -69.64 50.64 -71 52 C-99.7647389 92.27063446 -76.59696785 121.16977668 -35 136 C-34.18721233 136.81278767 -68.73705117 130.09470377 -79 120 C-85.21677562 112.28262336 -88.49936598 104.22894424 -92 95 C-95.74131255 87.51737489 -100.83033173 83.62528577 -107 78 C-112.81057288 71.56125708 -148.60931121 -3 -127 -3 C-126.86203537 0.62387106 -126.76671167 4.24936885 -126.6875 7.875 C-125.83648378 29.80800886 -91 84.23142453 -91 76 C-85.40592415 63.46512634 -78.78492427 52.97058593 0 0 Z " fill="#EBE1E7" transform="translate(478,192)"/>
<path d="M0 0 C-1.8908576 5.04228693 -3.90678372 10.03830215 -6 15 C-6.969375 17.536875 -7.93875 20.07375 -8.9375 22.6875 C-22.88888889 56 -22.88888889 56 -31 56 C-31.99 57.98 -31.99 57.98 -33 60 C-45 72 -45 72 -49 72 C-49 72.66 -49 73.32 -49 74 C-62.84297958 82.48440684 -75.99687906 87.79937581 -92 91 C-93.98 91.495 -93.98 91.495 -96 92 C-101.28477548 91.81391636 -141.16999816 87.56989787 -123.875 86.6875 C-96.42841531 84.56135612 -70.90274378 73.98608186 -50 56 C-47.710625 54.2675 -45.42125 52.535 -43.0625 50.75 C-38.44032168 46.98681057 3.97037208 -5 -7 -5 C-7.66 -3.35 -8.32 -1.7 -9 0 C-12 5 -12 5 -15 4 C-13.10071564 0.9352457 -11.09187696 -2.06332658 -9 -5 C-8.67 -5.66 -8.34 -6.32 -8 -7 C-7.34 -7 -6.68 -7 -6 -7 C-3.56985046 -24.01104681 0 -5.75739473 0 0 Z " fill="#CC2749" transform="translate(498,435)"/>
<path d="M0 0 C0.99 0 1.98 0 3 0 C3.6953125 4.79296875 3.6953125 4.79296875 4.125 11.1875 C4.35703125 14.49201172 4.35703125 14.49201172 4.59375 17.86328125 C4.79484375 20.90095703 4.79484375 20.90095703 5 24 C5.20625 26.26875 5.4125 28.5375 5.625 30.875 C7.34693878 59 7.34693878 59 1 59 C1.33 57.35 1.66 55.7 2 54 C1.34 54 0.68 54 0 54 C0 53.01 0 52.02 0 51 C-3.98962965 50.70486611 -7.99556606 50.63152891 -11.99609375 50.63671875 C-15.71149414 50.63768555 -15.71149414 50.63768555 -19.50195312 50.63867188 C-23.43004883 50.6628418 -23.43004883 50.6628418 -27.4375 50.6875 C-30.05236328 50.68427734 -32.66722656 50.68105469 -35.36132812 50.67773438 C-46.84979145 49.49984025 -46.84979145 49.49984025 -56 53 C-57.98 53 -59.96 53 -62 53 C-62.99 53.495 -62.99 53.495 -64 54 C-64 53.34 -64 52.68 -64 52 C-69.4090539 50.19698203 -75.23438672 50.80620057 -80.890625 50.75390625 C-83.68273437 50.72103516 -86.47484375 50.68816406 -89.3515625 50.65429688 C-95.2994386 50.59293819 -101.24735824 50.53566775 -107.1953125 50.48242188 C-109.98226562 50.44826172 -112.76921875 50.41410156 -115.640625 50.37890625 C-118.22422852 50.3538501 -120.80783203 50.32879395 -123.46972656 50.30297852 C-139.67070928 49.4154004 -114.33915886 48.05060262 -112.37109375 48.09375 C-109.17099609 48.15433594 -105.97089844 48.21492187 -102.67382812 48.27734375 C-99.26169424 48.35042696 -95.84958482 48.42466091 -92.4375 48.5 C-85.79045656 48.64661439 -79.14360993 48.780345 -72.49609375 48.90625 C-69.52794678 48.97134766 -66.5597998 49.03644531 -63.50170898 49.10351562 C-56.66670891 50.07844907 -56.66670891 50.07844907 -57 47 C-54.669375 46.13375 -52.33875 45.2675 -49.9375 44.375 C-36.39878419 39.26247795 -24.66271894 32.53662933 -13 24 C-11.4325 23.0925 -9.865 22.185 -8.25 21.25 C-3.3469321 14.83829583 -4.07336085 8.42948932 -4.03515625 0.54296875 C-3.97273516 -7.52322346 0 -6.56541618 0 0 Z " fill="#D9E8DF" transform="translate(901,477)"/>
<path d="M0 0 C1.65 0.33 3.3 0.66 5 1 C7.35506169 4.65274874 9.68334642 8.32277209 12 12 C18.05418873 18.87402679 24.04209549 25.03608185 31 31 C33.1875 35.609375 33.1875 35.609375 35 40.75 C41.27243777 57.26462106 49.60102081 66.7115648 66 74 C35.9982683 81.50043293 -12.06433763 26.59861251 0 0 Z " fill="#E72E3A" transform="translate(354,251)"/>
<path d="M0 0 C1.94464286 17.67857143 1.94464286 17.67857143 -3.3125 24.25 C-4.22 25.755625 -5.1275 27.26125 -6.0625 28.8125 C-14.01919658 39.67645109 -33.1453568 40.42000239 -35.3125 25.25 C-36.6325 24.59 -37.9525 23.93 -39.3125 23.25 C-39.6425 20.61 -39.9725 17.97 -40.3125 15.25 C-40.6425 14.26 -40.9725 13.27 -41.3125 12.25 C-38.3125 13.25 -38.3125 13.25 -36.3125 21.25 C-35.6525 21.25 -34.9925 21.25 -34.3125 21.25 C-34.3125 22.57 -34.3125 23.89 -34.3125 25.25 C-24.70854081 22.8490102 -28.98670338 19.91289831 -36.3125 16.25 C-41.4915533 0.7128401 -36.01136591 -1.26099493 -21.25 -0.75 C-0.04511333 -0.16326729 -0.04511333 -0.16326729 0 0 Z " fill="#B393B9" transform="translate(949.3125,171.75)"/>
<path d="M0 0 C1.51335938 2.50851562 3.02671875 5.01703125 4.5859375 7.6015625 C22.1056631 36.95353346 36.25109767 65.26053364 45 139 C44.28568958 134.74815228 43.57986419 130.49469692 42.91796875 126.234375 C37.81110375 97.11437882 25.66735363 69.01913473 14 42 C13.236875 40.1025 12.47375 38.205 11.6875 36.25 C8.32862204 28.43865591 4.62506019 20.81304964 0.9375 13.15234375 C-6.83124914 -3.11864016 -19.0007573 -31.66792884 0 0 Z " fill="#A11A76" transform="translate(678,361)"/>
<path d="M0 0 C20.3600988 5.39295784 38.7216082 7.69608384 59.8046875 8.625 C73.36885477 9.55600099 76.61831403 13.4411488 61.50097656 13.43041992 C59.23482483 13.43349655 56.9686731 13.43657318 54.6338501 13.43974304 C52.16108582 13.43255753 49.68832153 13.42537201 47.140625 13.41796875 C43.36501129 13.41728142 43.36501129 13.41728142 39.51312256 13.4165802 C34.17313162 13.4135506 28.83314162 13.40564343 23.49316406 13.39331055 C15.30009848 13.37511128 7.10714614 13.37280036 -1.0859375 13.37304688 C-6.26041765 13.36812984 -11.43489703 13.36230072 -16.609375 13.35546875 C-20.30637604 13.35379951 -20.30637604 13.35379951 -24.07806396 13.35209656 C-26.35682434 13.34571671 -28.63558472 13.33933685 -30.98339844 13.33276367 C-34.00001617 13.32704597 -34.00001617 13.32704597 -37.07757568 13.32121277 C-48.1803298 13.01961748 -48.83751865 12.05946032 -37.3125 6.4375 C-28.81325722 2.5006264 -28.81325722 2.5006264 -22 -3.8125 C-15.41098679 -6.00883774 -6.66878239 -1.77914447 0 0 Z " fill="#2E1E59" transform="translate(618,512.8125)"/>
<path d="M0 0 C-8.32637767 2.46676862 -56.0785945 2.16818407 -38.6875 -4.375 C13.23053589 -26.03864087 13.23053589 -26.03864087 0 0 Z " fill="#148C44" transform="translate(897,526)"/>
<path d="M0 0 C0.31911258 13.48650804 0.31911258 13.48650804 1.84375 26.87109375 C3.15749369 34.75885325 3.11475591 42.44711132 3.125 50.4375 C3.14175781 53.48484375 3.15851562 56.5321875 3.17578125 59.671875 C2.74573296 67.97689365 1.05120484 69.7842621 -2.1875 61.6875 C-5.16643195 64.66643195 -3.60814175 75.05765341 -3.7109375 79.12890625 C-4.1875 83.6875 -4.1875 83.6875 -7.1875 83.6875 C-6.1975 83.1925 -6.1975 83.1925 -5.1875 82.6875 C-5.5175 80.0475 -5.8475 77.4075 -6.1875 74.6875 C-6.46242903 60.93930863 -6.50065895 47.19135745 -6.53759766 33.44067383 C-6.55425828 28.88072645 -6.58167771 24.32080621 -6.61962891 19.76098633 C-6.67391611 13.20380045 -6.69618915 6.64722287 -6.7109375 0.08984375 C-6.73360687 -1.96823013 -6.75627625 -4.02630402 -6.77963257 -6.14674377 C-6.74184634 -31.02203241 -0.35462594 -14.71440657 0 0 Z " fill="#5EA474" transform="translate(901.1875,410.3125)"/>
<path d="M0 0 C2.97 -0.06832031 5.94 -0.13664063 9 -0.20703125 C27.89787466 5.24508996 14.40437593 20.8125 0 20.8125 C-1 15.8125 -1 15.8125 4 16.8125 C3.27776981 12.20645678 3.27776981 12.20645678 -2 8.8125 C-2 8.1525 -2 7.4925 -2 6.8125 C-7.2867699 6.1672246 -7.2867699 6.1672246 -4.3125 13.3125 C-1.95631615 24.98122 -13.79187781 21.43686658 -16 14.8125 C-18.34200824 0.32132402 -13.69543138 -0.02972099 0 0 Z " fill="#251745" transform="translate(928,170.1875)"/>
<path d="M0 0 C-2 -1 -2 -1 3.8125 -6.75 C10.31043249 -12.16661006 10.31043249 -12.16661006 11 -18 C11.66 -18 12.32 -18 13 -18 C13.33 -19.32 13.66 -20.64 14 -22 C14.99 -22.33 15.98 -22.66 17 -23 C14.01139514 -28.97720972 9.01184083 -23.04736332 8 -19 C2.85714286 -11.28571429 2.85714286 -11.28571429 -4 -9 C-9.90427395 -4.07977171 -14.18977143 1.03802656 -19 7 C-20.65 8.65 -22.3 10.3 -24 12 C-24.66 12.99 -25.32 13.98 -26 15 C-26.66 15 -27.32 15 -28 15 C-28.66 16.32 -29.32 17.64 -30 19 C-34.46087851 24.57609814 -39.44802617 28.53289462 -45 33 C-45.99 33.99 -46.98 34.98 -48 36 C-52.55931862 33.72034069 -40.908209 25.04591481 -39 23 C-34.59788195 17.77212014 -34.59788195 17.77212014 -31 12 C-30.34 12 -29.68 12 -29 12 C-28.34 10.68 -27.68 9.36 -27 8 C-25.68 7.34 -24.36 6.68 -23 6 C-21.02 3.525 -21.02 3.525 -19 1 C-17.515 0.505 -17.515 0.505 -16 0 C-14.63875 -1.85625 -13.2775 -3.7125 -11.875 -5.625 C-7.54551906 -11.28662892 -3.72058068 -14.88833263 2 -19 C2.33 -19.66 2.66 -20.32 3 -21 C3.99 -21.33 4.98 -21.66 6 -22 C7.11375 -23.27875 8.2275 -24.5575 9.375 -25.875 C31.35532041 -50.88708875 10.00771078 -10.00771078 0 0 Z " fill="#6DCB48" transform="translate(851,469)"/>
<path d="M0 0 C2.78195725 7.13390887 2.78195725 7.13390887 7.625 9.0625 C8.285 10.7125 8.945 12.3625 9.625 14.0625 C10.615 14.3925 11.605 14.7225 12.625 15.0625 C14.99778008 17.69412882 17.32896523 20.36365212 19.625 23.0625 C20.945 24.3825 22.265 25.7025 23.625 27.0625 C34.07794972 54.9370326 -1.58911378 4.52721554 -5.375 -4.9375 C-5.375 -13.41624537 -0.36042987 -0.74088362 0 0 Z " fill="#F1A94B" transform="translate(356.375,269.9375)"/>
<path d="M0 0 C-0.99 0.33 -1.98 0.66 -3 1 C-3 -1 -3 -1 0 0 Z " fill="#F4F4F1" transform="translate(916,208)"/>
</svg>
